<svg preserveAspectRatio="none" width="100%" height="100%" overflow="visible" style="display: block;" viewBox="0 0 1589.78 1081.28" fill="none" xmlns="http://www.w3.org/2000/svg">
<g id="Shapes">
<path id="Vector" d="M1588.34 967.171L1579.37 970.119C1493.29 983.312 1407.08 996.505 1321 1009.84C1111 1042.26 895.528 1049.42 690.011 992.294C605.056 968.715 528.934 933.908 451.409 895.591C352.996 850.538 240.565 842.538 136.684 873.275C87.7584 887.872 52.5709 907.802 9.39267 933.627C6.58889 935.311 3.36454 936.153 0.28038 936.715V228.073C5.32719 226.108 10.374 224.143 15.8414 223.161C82.4312 210.95 145.797 198.178 211.545 182.038C475.662 109.335 751.834 42.8076 1022.68 117.054C1131.47 150.599 1230.16 176.704 1344.83 155.792C1380.86 149.195 1415.77 138.809 1449.7 124.774C1499.18 104.422 1536.19 79.8607 1579.79 49.9656C1582.45 48.141 1585.54 47.2989 1588.62 46.5971C1590.02 353.408 1590.31 660.36 1588.62 967.171H1588.34Z" fill="var(--fill-0, #16150E)"/>
<path id="Vector_2" d="M1588.34 46.5971C1509.98 108.072 1413.39 151.862 1313.57 162.95C1199.18 175.722 1133.85 150.178 1028.57 121.405C849.266 72.4221 673.328 80.7029 492.484 116.072C327.201 148.353 167.386 205.196 0.14019 228.073V186.95C272.948 88.9837 557.112 -3.08777 851.368 49.5445C938.005 65.1237 1001.93 92.6329 1082.4 122.949C1221.19 175.16 1361.24 143.16 1485.44 71.2992C1521.47 50.527 1555.54 26.3863 1587.64 0C1588.9 15.2985 1588.2 30.8776 1588.34 46.3164V46.5971Z" fill="url(#paint0_linear_0_91)"/>
<path id="Vector_3" d="M1588.34 967.171C1588.34 983.452 1588.34 999.873 1588.34 1016.15C1456.56 1051.38 1082.82 1100.23 887.677 1073.7C762.629 1056.58 643.188 1017.28 533.84 954.259C502.718 936.294 475.241 916.363 441.596 902.188C293.135 839.59 130.516 881.696 0 964.645V936.855C112.291 857.696 250.658 832.011 384.118 868.363C452.11 886.889 510.989 924.223 575.757 950.75C760.386 1025.98 955.249 1042.4 1153.48 1026.96C1299.55 1015.59 1443.11 985.417 1588.2 967.312L1588.34 967.171Z" fill="url(#paint1_linear_0_91)"/>
</g>
<defs>
<linearGradient id="paint0_linear_0_91" x1="1182.43" y1="-345.027" x2="359.124" y2="514.905" gradientUnits="userSpaceOnUse">
<stop stop-color="#FBF7D3"/>
<stop offset="0.51" stop-color="#906F1E"/>
<stop offset="1" stop-color="#FBDD97"/>
</linearGradient>
<linearGradient id="paint1_linear_0_91" x1="1141.6" y1="526.312" x2="409.18" y2="1273.89" gradientUnits="userSpaceOnUse">
<stop stop-color="#FBF7D3"/>
<stop offset="0.51" stop-color="#906F1E"/>
<stop offset="1" stop-color="#FBDD97"/>
</linearGradient>
</defs>
</svg>
