<svg preserveAspectRatio="none" width="100%" height="100%" overflow="visible" style="display: block;" viewBox="0 0 1589.5 988.163" fill="none" xmlns="http://www.w3.org/2000/svg">
<path id="Vector" d="M1588.06 920.574L1579.09 923.522C1493.01 936.715 1406.8 949.908 1320.72 963.241C1110.72 995.663 895.248 1002.82 689.73 945.697C604.776 922.118 528.653 887.311 451.129 848.994C352.716 803.941 240.284 795.941 136.404 826.678C87.478 841.275 52.2905 861.205 9.11229 887.03C6.30851 888.714 3.08416 889.556 0 890.118V181.476C5.04681 179.511 10.0936 177.546 15.561 176.564C82.1508 164.353 145.516 151.581 211.265 135.44C475.381 62.7377 751.554 -3.78952 1022.4 70.4571C1131.19 104.001 1229.88 130.107 1344.55 109.194C1380.58 102.598 1415.49 92.2118 1449.42 78.1765C1498.9 57.8254 1535.91 33.2636 1579.51 3.36848C1582.17 1.54389 1585.26 0.701764 1588.34 0C1589.74 306.811 1590.02 613.763 1588.34 920.574H1588.06Z" fill="var(--fill-0, #16150E)"/>
</svg>
