<svg width="294" height="57" viewBox="0 0 294 57" fill="none" xmlns="http://www.w3.org/2000/svg">
<path d="M43.9484 29.3159L46.39 26.8727L48.8293 24.4319L39.0653 14.6614L36.6214 12.2159L34.1821 9.77504L26.8574 2.44548L24.4135 0L21.9742 2.44089L19.5303 4.88637L12.2056 12.2159L9.76631 14.6568L7.32703 17.1023L4.88316 19.5432L0 24.4319L2.44388 26.8773L4.88086 29.3159L2.43928 31.7591L0 34.2L9.76402 43.9704L12.2079 46.4159L14.6472 48.8568L21.9719 56.1864L21.9765 56.191H26.8574L29.3012 53.7455L36.626 46.4159L39.0653 43.975L41.5045 41.5296L43.9484 39.0887L48.8316 34.2023L46.3877 31.7568L43.9507 29.3182L43.9484 29.3159ZM41.5022 36.6432L39.063 39.0887L36.6191 41.5296L34.1798 43.9704L31.7359 46.4159L29.2966 48.8568L26.8574 51.2977L24.4135 53.7432L17.0888 46.4136L14.6495 43.9727L12.2056 41.5273L4.88086 34.1977L7.32244 31.7545L7.32933 31.7614L9.76861 34.2023L12.2079 36.6432L14.6518 39.0887L17.091 41.5296L19.5349 43.9704L21.9742 46.4159L24.4135 48.8568L29.2966 43.9704L31.7405 41.5296L29.3012 39.0887L26.8574 36.6432L21.9765 31.7591L19.5326 29.3136L17.0888 31.7545L19.5326 34.2L21.9719 36.6409L24.4158 39.0864L26.8551 41.5273L24.4158 43.9681L4.88775 24.4319L7.32703 21.991L9.76631 19.5455L12.2102 17.1046L14.6495 14.6637L17.0933 12.2182L19.5326 9.77734L21.9719 7.33645L24.4158 4.89097L31.7405 12.2205L34.1798 14.6614L36.6237 17.1069L43.9484 24.4365L41.5068 26.8796L41.4999 26.8727L39.0607 24.4319L36.6214 21.991L34.1775 19.5455L31.7382 17.1046L29.2943 14.6637L26.8551 12.2182L24.4158 9.77734L19.5326 14.6637L17.0888 17.1046L19.528 19.5455L21.9719 21.991L26.8528 26.875L29.2966 29.3205L31.7405 26.8796L29.2966 24.4342L26.8574 21.9933L24.4135 19.5478L21.9742 17.1069L24.4135 14.666L43.9438 34.2115L41.5045 36.6524L41.5022 36.6432Z" fill="url(#paint0_linear_17_153)"/>
<path d="M61.8433 27.9369C60.4859 27.9369 59.1835 27.7553 57.9409 27.3922C56.696 27.029 55.6946 26.5556 54.9343 25.9741L56.2665 23.0137C56.9946 23.5309 57.8537 23.9561 58.8482 24.2871C59.8427 24.618 60.8488 24.7835 61.8663 24.7835C62.6426 24.7835 63.2674 24.7077 63.7451 24.5537C64.2206 24.3997 64.5743 24.1859 64.7994 23.9101C65.0268 23.6343 65.1393 23.3194 65.1393 22.9632C65.1393 22.5104 64.9602 22.1496 64.6065 21.8829C64.2505 21.6163 63.7819 21.398 63.2008 21.2279C62.6197 21.0578 61.9765 20.8969 61.2737 20.7429C60.5709 20.589 59.868 20.4005 59.1652 20.1729C58.4623 19.9477 57.8192 19.6558 57.2381 19.2996C56.657 18.9433 56.1838 18.4744 55.8209 17.8929C55.458 17.3115 55.2766 16.5668 55.2766 15.6612C55.2766 14.6913 55.5384 13.8064 56.0644 13.0043C56.5904 12.2044 57.3805 11.5655 58.4394 11.0874C59.4982 10.6117 60.8281 10.3726 62.4267 10.3726C63.4925 10.3726 64.5445 10.499 65.578 10.7496C66.6116 11.0001 67.5258 11.377 68.3182 11.8781L67.1055 14.8614C66.313 14.4086 65.5206 14.073 64.7305 13.8547C63.9381 13.6363 63.1617 13.5283 62.4038 13.5283C61.6458 13.5283 61.021 13.6179 60.5364 13.7949C60.0518 13.9742 59.7049 14.204 59.4936 14.4867C59.2846 14.7694 59.179 15.0981 59.179 15.4681C59.179 15.9048 59.3558 16.2565 59.7118 16.5231C60.0678 16.7897 60.5364 17.0058 61.1175 17.1667C61.6986 17.3275 62.3418 17.4907 63.0446 17.6516C63.7474 17.8125 64.4503 17.9987 65.1531 18.2101C65.856 18.4193 66.4991 18.7043 67.0802 19.0582C67.6613 19.4145 68.1345 19.8833 68.4974 20.4648C68.8603 21.0463 69.0417 21.7818 69.0417 22.6713C69.0417 23.6251 68.7753 24.4985 68.2424 25.2915C67.7095 26.0844 66.9125 26.7233 65.8537 27.2083C64.7948 27.6933 63.458 27.9369 61.841 27.9369H61.8433Z" fill="url(#paint1_linear_17_153)"/>
<path d="M71.4673 27.645V14.5948H75.0803V18.1596L74.4004 17.1161C74.8529 16.2266 75.496 15.5509 76.3275 15.0912C77.1589 14.6315 78.1098 14.3994 79.1756 14.3994C80.3723 14.3994 81.4174 14.7028 82.3154 15.3096C83.2135 15.9163 83.8061 16.8426 84.0978 18.0883L82.7656 17.7252C83.202 16.707 83.9003 15.8979 84.8627 15.3004C85.8228 14.7028 86.9276 14.404 88.1725 14.404C89.2061 14.404 90.1248 14.6108 90.9241 15.0223C91.7234 15.4337 92.3551 16.0657 92.8144 16.9138C93.2738 17.7619 93.5058 18.8514 93.5058 20.1752V27.6473H89.7252V20.759C89.7252 19.7087 89.5069 18.9318 89.0705 18.4308C88.6341 17.9297 88.0209 17.6792 87.2284 17.6792C86.6795 17.6792 86.1857 17.8033 85.7493 18.0561C85.3128 18.3066 84.9729 18.6836 84.7317 19.1846C84.4906 19.6857 84.3688 20.3246 84.3688 21.1015V27.6519H80.5882V20.7636C80.5882 19.7133 80.3746 18.9364 79.9451 18.4354C79.5178 17.9343 78.9069 17.6838 78.1144 17.6838C77.5655 17.6838 77.0717 17.8079 76.6353 18.0607C76.1988 18.3112 75.8589 18.6882 75.6177 19.1892C75.3743 19.6903 75.2548 20.3292 75.2548 21.1061V27.6565H71.4742L71.4673 27.645Z" fill="url(#paint2_linear_17_153)"/>
<path d="M100.92 27.8381C99.9025 27.8381 99.0297 27.6634 98.3016 27.3163C97.5735 26.9693 97.0176 26.4958 96.6294 25.8982C96.2413 25.3006 96.0483 24.6295 96.0483 23.8848C96.0483 23.1402 96.239 22.43 96.618 21.8462C96.9969 21.2647 97.5987 20.8073 98.4233 20.4763C99.2479 20.1454 100.323 19.9799 101.648 19.9799H105.114V22.1886H102.059C101.17 22.1886 100.559 22.3334 100.229 22.6253C99.8979 22.9172 99.7325 23.2804 99.7325 23.7171C99.7325 24.202 99.9232 24.5858 100.302 24.8685C100.681 25.1512 101.203 25.2937 101.866 25.2937C102.53 25.2937 103.063 25.1444 103.564 24.8456C104.064 24.5468 104.427 24.1055 104.655 23.524L105.236 25.2708C104.96 26.112 104.459 26.7509 103.734 27.1876C103.006 27.6243 102.068 27.8427 100.922 27.8427L100.92 27.8381ZM104.896 27.645V25.0984L104.652 24.5399V19.9799C104.652 19.1708 104.407 18.5411 103.913 18.0883C103.419 17.6355 102.663 17.408 101.646 17.408C100.95 17.408 100.268 17.516 99.597 17.7343C98.9263 17.9527 98.3567 18.2469 97.8881 18.6192L96.5307 15.9761C97.2427 15.475 98.0971 15.0866 99.1009 14.8108C100.102 14.535 101.12 14.3994 102.156 14.3994C104.143 14.3994 105.686 14.8683 106.786 15.806C107.884 16.7437 108.435 18.2078 108.435 20.1959V27.6427H104.896V27.645Z" fill="url(#paint3_linear_17_153)"/>
<path d="M111.853 27.645V14.5948H115.466V18.2814L114.956 17.2149C115.344 16.2933 115.967 15.5946 116.824 15.1165C117.68 14.6407 118.723 14.4017 119.95 14.4017V17.8952C119.789 17.8792 119.642 17.8677 119.513 17.8585C119.385 17.8493 119.247 17.847 119.102 17.847C118.068 17.847 117.232 18.1412 116.594 18.7319C115.955 19.3225 115.636 20.2396 115.636 21.4853V27.6473H111.855L111.853 27.645Z" fill="url(#paint4_linear_17_153)"/>
<path d="M121.114 17.5045V14.5948H130.157V17.5045H121.114ZM127.998 27.8381C126.464 27.8381 125.267 27.4473 124.41 26.6613C123.553 25.8775 123.126 24.7077 123.126 23.1563V11.708H126.907V23.108C126.907 23.6573 127.052 24.0825 127.343 24.3813C127.635 24.6801 128.03 24.8295 128.531 24.8295C129.128 24.8295 129.638 24.6686 130.058 24.3445L131.076 27.0129C130.688 27.2888 130.224 27.4933 129.681 27.6312C129.139 27.7691 128.579 27.8381 127.996 27.8381H127.998Z" fill="url(#paint5_linear_17_153)"/>
<path d="M145.911 27.9369C144.554 27.9369 143.251 27.7553 142.009 27.3922C140.764 27.029 139.762 26.5556 139.002 25.9741L140.334 23.0137C141.062 23.5309 141.922 23.9561 142.916 24.2871C143.911 24.618 144.917 24.7835 145.934 24.7835C146.711 24.7835 147.335 24.7077 147.813 24.5537C148.288 24.3997 148.642 24.1859 148.867 23.9101C149.095 23.6343 149.207 23.3194 149.207 22.9632C149.207 22.5104 149.028 22.1496 148.674 21.8829C148.318 21.6163 147.85 21.398 147.269 21.2279C146.688 21.0578 146.044 20.8969 145.342 20.7429C144.639 20.589 143.936 20.4005 143.233 20.1729C142.53 19.9477 141.887 19.6558 141.306 19.2996C140.725 18.9433 140.252 18.4744 139.889 17.8929C139.526 17.3115 139.344 16.5668 139.344 15.6612C139.344 14.6913 139.606 13.8064 140.132 13.0043C140.658 12.2044 141.448 11.5655 142.507 11.0874C143.566 10.6117 144.896 10.3726 146.495 10.3726C147.56 10.3726 148.612 10.499 149.646 10.7496C150.68 11.0001 151.594 11.377 152.386 11.8781L151.173 14.8614C150.381 14.4086 149.589 14.073 148.798 13.8547C148.006 13.6363 147.23 13.5283 146.472 13.5283C145.714 13.5283 145.089 13.6179 144.604 13.7949C144.12 13.9742 143.773 14.204 143.562 14.4867C143.352 14.7694 143.247 15.0981 143.247 15.4681C143.247 15.9048 143.424 16.2565 143.78 16.5231C144.136 16.7897 144.604 17.0058 145.185 17.1667C145.766 17.3275 146.41 17.4907 147.112 17.6516C147.815 17.8125 148.518 17.9987 149.221 18.2101C149.924 18.4193 150.567 18.7043 151.148 19.0582C151.729 19.4145 152.202 19.8833 152.565 20.4648C152.928 21.0463 153.11 21.7818 153.11 22.6713C153.11 23.6251 152.843 24.4985 152.31 25.2915C151.777 26.0844 150.98 26.7233 149.922 27.2083C148.863 27.6933 147.526 27.9369 145.909 27.9369H145.911Z" fill="url(#paint6_linear_17_153)"/>
<path d="M153.985 17.5045V14.5948H163.028V17.5045H153.985ZM160.868 27.8381C159.334 27.8381 158.137 27.4473 157.281 26.6613C156.424 25.8775 155.997 24.7077 155.997 23.1563V11.708H159.777V23.108C159.777 23.6573 159.922 24.0825 160.214 24.3813C160.506 24.6801 160.901 24.8295 161.401 24.8295C161.999 24.8295 162.508 24.6686 162.929 24.3445L163.946 27.0129C163.558 27.2888 163.094 27.4933 162.552 27.6312C162.01 27.7691 161.45 27.8381 160.866 27.8381H160.868Z" fill="url(#paint7_linear_17_153)"/>
<path d="M169.668 27.8381C168.65 27.8381 167.777 27.6634 167.049 27.3163C166.321 26.9693 165.765 26.4958 165.377 25.8982C164.989 25.3006 164.796 24.6295 164.796 23.8848C164.796 23.1402 164.987 22.43 165.366 21.8462C165.745 21.2647 166.347 20.8073 167.171 20.4763C167.996 20.1454 169.071 19.9799 170.396 19.9799H173.862V22.1886H170.807C169.918 22.1886 169.307 22.3334 168.976 22.6253C168.646 22.9172 168.48 23.2804 168.48 23.7171C168.48 24.202 168.671 24.5858 169.05 24.8685C169.429 25.1512 169.95 25.2937 170.614 25.2937C171.278 25.2937 171.811 25.1444 172.312 24.8456C172.812 24.5468 173.175 24.1055 173.403 23.524L173.984 25.2708C173.708 26.112 173.207 26.7509 172.481 27.1876C171.753 27.6243 170.816 27.8427 169.67 27.8427L169.668 27.8381ZM173.644 27.645V25.0984L173.4 24.5399V19.9799C173.4 19.1708 173.154 18.5411 172.661 18.0883C172.167 17.6355 171.411 17.408 170.394 17.408C169.698 17.408 169.016 17.516 168.345 17.7343C167.674 17.9527 167.105 18.2469 166.636 18.6192L165.278 15.9761C165.991 15.475 166.845 15.0866 167.849 14.8108C168.85 14.535 169.868 14.3994 170.904 14.3994C172.89 14.3994 174.434 14.8683 175.534 15.806C176.632 16.7437 177.183 18.2078 177.183 20.1959V27.6427H173.644V27.645Z" fill="url(#paint8_linear_17_153)"/>
<path d="M180.601 27.645V14.5948H184.214V18.2078L183.534 17.1161C184.003 16.2427 184.673 15.5716 185.546 15.1027C186.419 14.6338 187.413 14.3994 188.527 14.3994C189.561 14.3994 190.487 14.6062 191.302 15.0177C192.117 15.4291 192.761 16.0611 193.229 16.9092C193.698 17.7573 193.932 18.8468 193.932 20.1706V27.6427H190.151V20.7544C190.151 19.7041 189.922 18.9272 189.46 18.4262C188.998 17.9251 188.348 17.6746 187.508 17.6746C186.91 17.6746 186.373 17.7987 185.895 18.0515C185.418 18.3021 185.048 18.6859 184.781 19.203C184.515 19.7202 184.382 20.3844 184.382 21.1911V27.6427H180.601V27.645Z" fill="url(#paint9_linear_17_153)"/>
<path d="M203.048 27.8381C201.819 27.8381 200.712 27.56 199.727 27.0015C198.742 26.4429 197.961 25.6638 197.389 24.6594C196.815 23.6573 196.527 22.4759 196.527 21.1176C196.527 19.7592 196.815 18.5549 197.389 17.5528C197.963 16.5507 198.742 15.7738 199.727 15.2245C200.712 14.6752 201.819 14.3994 203.048 14.3994C204.146 14.3994 205.109 14.643 205.933 15.128C206.758 15.6129 207.396 16.3484 207.849 17.3344C208.301 18.3204 208.529 19.5823 208.529 21.1176C208.529 22.6529 208.31 23.894 207.874 24.8892C207.438 25.8844 206.811 26.6245 205.995 27.1095C205.18 27.5944 204.197 27.8381 203.051 27.8381H203.048ZM203.703 24.7352C204.316 24.7352 204.874 24.5904 205.375 24.2986C205.876 24.0067 206.275 23.5906 206.574 23.0482C206.873 22.5058 207.022 21.8646 207.022 21.1199C207.022 20.3752 206.873 19.7133 206.574 19.18C206.275 18.6468 205.876 18.2331 205.375 17.9435C204.874 17.6516 204.316 17.5068 203.703 17.5068C203.09 17.5068 202.506 17.6516 202.006 17.9435C201.505 18.2354 201.105 18.6468 200.807 19.18C200.508 19.7133 200.359 20.3614 200.359 21.1199C200.359 21.8783 200.508 22.5058 200.807 23.0482C201.105 23.5906 201.505 24.0067 202.006 24.2986C202.506 24.5904 203.071 24.7352 203.703 24.7352ZM207.121 27.645V24.9766L207.194 21.0946L206.951 17.2379V9.64633H210.731V27.645H207.121Z" fill="url(#paint10_linear_17_153)"/>
<path d="M221.35 27.645V10.6645H234.173V13.8179H225.252V24.4916H234.488V27.645H221.35ZM224.961 20.5614V17.5045H233.131V20.5614H224.961Z" fill="url(#paint11_linear_17_153)"/>
<path d="M242.803 27.0152C241.59 27.0152 240.497 26.7532 239.518 26.2269C238.54 25.7006 237.756 24.9651 237.166 24.0204C236.576 23.0735 236.282 21.9703 236.282 20.7085C236.282 19.4467 236.576 18.3181 237.166 17.3735C237.756 16.4266 238.54 15.6957 239.518 15.1786C240.497 14.6614 241.59 14.4017 242.803 14.4017C243.9 14.4017 244.872 14.6246 245.713 15.0682C246.553 15.5141 247.208 16.2013 247.677 17.1299C248.145 18.0607 248.379 19.2536 248.379 20.7085C248.379 22.1633 248.145 23.3332 247.677 24.2618C247.208 25.1926 246.553 25.8821 245.713 26.3349C244.872 26.7877 243.903 27.0152 242.803 27.0152ZM243.384 32.5452C242.155 32.5452 240.972 32.3958 239.833 32.097C238.693 31.7982 237.745 31.3477 236.985 30.7501L238.487 28.0334C239.036 28.4862 239.736 28.8471 240.584 29.1137C241.431 29.3803 242.27 29.5136 243.092 29.5136C244.433 29.5136 245.407 29.2148 246.014 28.6149C246.62 28.0173 246.923 27.1279 246.923 25.9465V23.9814L247.167 20.7062L247.118 17.408V14.5948H250.706V25.4615C250.706 27.8886 250.077 29.6745 248.816 30.8214C247.555 31.9706 245.745 32.5429 243.386 32.5429L243.384 32.5452ZM243.554 23.9101C244.217 23.9101 244.805 23.7768 245.325 23.5102C245.841 23.2436 246.246 22.8667 246.537 22.3817C246.829 21.8967 246.974 21.3382 246.974 20.7085C246.974 20.0787 246.829 19.4995 246.537 19.0215C246.246 18.5457 245.841 18.1733 245.325 17.9067C244.808 17.6401 244.217 17.5068 243.554 17.5068C242.89 17.5068 242.302 17.6401 241.785 17.9067C241.268 18.1733 240.859 18.5457 240.561 19.0215C240.262 19.4995 240.113 20.0603 240.113 20.7085C240.113 21.3566 240.262 21.8967 240.561 22.3817C240.859 22.8667 241.268 23.2436 241.785 23.5102C242.302 23.7768 242.892 23.9101 243.554 23.9101Z" fill="url(#paint12_linear_17_153)"/>
<path d="M255.87 32.5452C255.192 32.5452 254.521 32.4394 253.858 32.2303C253.194 32.0211 252.654 31.7292 252.234 31.3569L253.616 28.6632C253.908 28.9206 254.243 29.1229 254.622 29.27C255.001 29.4148 255.378 29.4883 255.75 29.4883C256.283 29.4883 256.708 29.3619 257.023 29.1114C257.337 28.8608 257.624 28.4448 257.884 27.8611L258.564 26.2591L258.856 25.8477L263.534 14.5925H267.17L261.279 28.4425C260.858 29.4929 260.378 30.318 259.836 30.9179C259.294 31.5155 258.697 31.9361 258.042 32.1797C257.388 32.4233 256.664 32.5429 255.872 32.5429L255.87 32.5452ZM258.1 28.1552L252.282 14.5948H256.184L260.693 25.5098L258.1 28.1529V28.1552Z" fill="url(#paint13_linear_17_153)"/>
<path d="M268.716 32.3521V14.5971H272.329V17.2655L272.255 21.1475L272.499 25.0042V32.3544H268.718L268.716 32.3521ZM276.424 27.8381C275.324 27.8381 274.364 27.5944 273.539 27.1095C272.715 26.6245 272.072 25.8844 271.612 24.8892C271.151 23.894 270.921 22.6368 270.921 21.1176C270.921 19.5983 271.139 18.3204 271.576 17.3344C272.012 16.3484 272.641 15.6129 273.466 15.128C274.29 14.643 275.276 14.3994 276.424 14.3994C277.653 14.3994 278.756 14.6775 279.734 15.236C280.713 15.7945 281.487 16.5737 282.061 17.5758C282.635 18.5779 282.922 19.7592 282.922 21.1176C282.922 22.4759 282.635 23.6803 282.061 24.6824C281.487 25.6845 280.71 26.4613 279.734 27.0106C278.756 27.56 277.653 27.8358 276.424 27.8358V27.8381ZM275.77 24.7352C276.399 24.7352 276.962 24.5904 277.456 24.2985C277.949 24.0066 278.344 23.5906 278.643 23.0482C278.942 22.5058 279.091 21.8646 279.091 21.1199C279.091 20.3752 278.942 19.7133 278.643 19.18C278.344 18.6468 277.947 18.2331 277.456 17.9435C276.962 17.6516 276.401 17.5068 275.77 17.5068C275.138 17.5068 274.573 17.6516 274.072 17.9435C273.572 18.2354 273.176 18.6468 272.885 19.18C272.593 19.7133 272.448 20.3614 272.448 21.1199C272.448 21.8783 272.593 22.5058 272.885 23.0482C273.176 23.5906 273.572 24.0066 274.072 24.2985C274.573 24.5904 275.138 24.7352 275.77 24.7352Z" fill="url(#paint14_linear_17_153)"/>
<path d="M283.891 17.5045V14.5948H292.934V17.5045H283.891ZM290.775 27.8381C289.241 27.8381 288.044 27.4473 287.187 26.6613C286.331 25.8775 285.903 24.7077 285.903 23.1563V11.708H289.684V23.108C289.684 23.6573 289.829 24.0825 290.12 24.3813C290.412 24.6801 290.807 24.8295 291.308 24.8295C291.905 24.8295 292.415 24.6686 292.835 24.3445L293.853 27.0129C293.465 27.2888 293.001 27.4933 292.459 27.6312C291.917 27.7691 291.356 27.8381 290.773 27.8381H290.775Z" fill="url(#paint15_linear_17_153)"/>
<path d="M56.5605 50.3738V40.3873H57.6148V50.3738H56.5605Z" fill="url(#paint16_linear_17_153)"/>
<path d="M60.8672 50.3738V40.3873H61.7377L68.6237 49.0614H68.1667V40.3873H69.2071V50.3738H68.3366L61.4644 41.6996H61.9215V50.3738H60.8672Z" fill="url(#paint17_linear_17_153)"/>
<path d="M74.3958 50.3738V41.2997H70.8884V40.3873H78.9574V41.2997H75.45V50.3738H74.3958Z" fill="url(#paint18_linear_17_153)"/>
<path d="M80.641 50.3738V40.3873H87.4834V41.2997H81.6953V49.459H87.697V50.3715H80.641V50.3738ZM81.5827 45.7517V44.853H86.8586V45.7517H81.5827Z" fill="url(#paint19_linear_17_153)"/>
<path d="M94.5279 50.4588C93.7676 50.4588 93.0671 50.3324 92.4239 50.0796C91.7831 49.8267 91.2273 49.4728 90.7564 49.0154C90.2856 48.558 89.9204 48.0225 89.6585 47.4042C89.3967 46.786 89.2657 46.1102 89.2657 45.3794C89.2657 44.6485 89.3967 43.9727 89.6585 43.3545C89.9204 42.7362 90.2879 42.1984 90.7633 41.7433C91.2388 41.2859 91.7969 40.932 92.4377 40.6815C93.0786 40.4286 93.7791 40.3022 94.5417 40.3022C95.3042 40.3022 95.9979 40.4217 96.6295 40.6585C97.2612 40.8952 97.8009 41.2584 98.2488 41.7433L97.5919 42.4144C97.1739 41.9961 96.7122 41.6973 96.2092 41.5158C95.7062 41.3342 95.1641 41.2446 94.583 41.2446C93.9652 41.2446 93.3978 41.3457 92.8787 41.5502C92.3619 41.7548 91.9094 42.0444 91.5236 42.4213C91.1377 42.7983 90.8391 43.235 90.6255 43.7337C90.4119 44.2325 90.3039 44.7818 90.3039 45.3817C90.3039 45.9815 90.4096 46.5171 90.6255 47.0227C90.8391 47.5261 91.1377 47.9673 91.5236 48.342C91.9094 48.7166 92.3596 49.0085 92.8787 49.2131C93.3955 49.4176 93.9606 49.5188 94.5692 49.5188C95.1389 49.5188 95.6786 49.4337 96.1885 49.2613C96.6961 49.089 97.1647 48.7994 97.5919 48.3902L98.1914 49.1901C97.7159 49.6084 97.1601 49.9256 96.5239 50.1393C95.8876 50.3531 95.2215 50.4611 94.5279 50.4611V50.4588ZM98.1914 49.1901L97.1785 49.0614V45.3817H98.1914V49.1901Z" fill="url(#paint20_linear_17_153)"/>
<path d="M101.17 50.3738V40.3873H104.905C106.168 40.3873 107.165 40.6883 107.891 41.2928C108.619 41.8973 108.982 42.7362 108.982 43.8119C108.982 44.5152 108.819 45.1219 108.491 45.6299C108.162 46.1378 107.694 46.5286 107.087 46.7998C106.478 47.071 105.753 47.2066 104.905 47.2066H101.754L102.225 46.7216V50.3738H101.17ZM102.227 46.8067L101.756 46.3079H104.878C105.874 46.3079 106.632 46.0896 107.151 45.6506C107.668 45.2139 107.928 44.6002 107.928 43.8096C107.928 43.0189 107.668 42.3915 107.151 41.9548C106.632 41.5181 105.874 41.2974 104.878 41.2974H101.756L102.227 40.7987V46.8044V46.8067ZM107.985 50.3738L105.42 46.7492H106.561L109.143 50.3738H107.988H107.985Z" fill="url(#paint21_linear_17_153)"/>
<path d="M109.883 50.3738L114.444 40.3873H115.485L120.046 50.3738H118.935L114.743 41.0009H115.17L110.978 50.3738H109.88H109.883ZM111.679 47.7053L111.993 46.8503H117.795L118.11 47.7053H111.681H111.679Z" fill="url(#paint22_linear_17_153)"/>
<path d="M123.14 50.3738V41.2997H119.633V40.3873H127.702V41.2997H124.194V50.3738H123.14Z" fill="url(#paint23_linear_17_153)"/>
<path d="M129.385 50.3738V40.3873H136.228V41.2997H130.44V49.459H136.441V50.3715H129.385V50.3738ZM130.327 45.7517V44.853H135.603V45.7517H130.327Z" fill="url(#paint24_linear_17_153)"/>
<path d="M138.924 50.3738V40.3873H142.987C144.051 40.3873 144.986 40.5987 145.79 41.0216C146.593 41.4445 147.218 42.0329 147.664 42.7845C148.109 43.5361 148.334 44.4002 148.334 45.3817C148.334 46.3631 148.112 47.2273 147.664 47.9788C147.216 48.7304 146.591 49.3165 145.79 49.7394C144.986 50.1623 144.053 50.3738 142.987 50.3738H138.924ZM139.978 49.4613H142.93C143.814 49.4613 144.581 49.2889 145.231 48.9396C145.881 48.5925 146.389 48.1121 146.75 47.4985C147.11 46.8848 147.292 46.1792 147.292 45.3794C147.292 44.5795 147.11 43.8624 146.75 43.2533C146.389 42.6443 145.881 42.1662 145.231 41.8192C144.581 41.4721 143.812 41.2974 142.93 41.2974H139.978V49.4567V49.4613Z" fill="url(#paint25_linear_17_153)"/>
<path d="M154.435 50.3738V40.3873H158.498C159.562 40.3873 160.496 40.5987 161.3 41.0216C162.104 41.4445 162.729 42.0329 163.175 42.7845C163.62 43.5361 163.845 44.4002 163.845 45.3817C163.845 46.3631 163.622 47.2273 163.175 47.9788C162.727 48.7304 162.102 49.3165 161.3 49.7394C160.496 50.1623 159.564 50.3738 158.498 50.3738H154.435ZM155.489 49.4613H158.441C159.325 49.4613 160.092 49.2889 160.742 48.9396C161.392 48.5925 161.9 48.1121 162.26 47.4985C162.621 46.8848 162.802 46.1792 162.802 45.3794C162.802 44.5795 162.621 43.8624 162.26 43.2533C161.9 42.6443 161.392 42.1662 160.742 41.8192C160.092 41.4721 159.323 41.2974 158.441 41.2974H155.489V49.4567V49.4613Z" fill="url(#paint26_linear_17_153)"/>
<path d="M166.211 50.3738V40.3873H167.265V50.3738H166.211Z" fill="url(#paint27_linear_17_153)"/>
<path d="M173.269 50.4588C172.528 50.4588 171.818 50.337 171.138 50.0956C170.458 49.852 169.934 49.5417 169.562 49.1602L169.976 48.3466C170.327 48.689 170.8 48.9763 171.395 49.2108C171.99 49.4429 172.615 49.5601 173.269 49.5601C173.924 49.5601 174.409 49.482 174.801 49.3257C175.196 49.1694 175.486 48.9579 175.672 48.6913C175.858 48.4247 175.95 48.1305 175.95 47.8064C175.95 47.4157 175.837 47.1031 175.615 46.8641C175.392 46.6274 175.098 46.4389 174.737 46.301C174.377 46.1631 173.977 46.0413 173.54 45.9379C173.104 45.8321 172.665 45.7218 172.229 45.6023C171.793 45.4828 171.391 45.3242 171.025 45.1242C170.66 44.9243 170.364 44.66 170.141 44.3313C169.918 44.0026 169.806 43.5728 169.806 43.0396C169.806 42.5454 169.937 42.0904 170.198 41.6767C170.46 41.2629 170.862 40.9297 171.404 40.6792C171.946 40.4263 172.64 40.2999 173.485 40.2999C174.046 40.2999 174.602 40.3781 175.153 40.5344C175.704 40.6906 176.18 40.9067 176.579 41.1848L176.223 42.026C175.796 41.741 175.341 41.5319 174.861 41.3985C174.381 41.2652 173.917 41.1986 173.472 41.1986C172.872 41.1986 172.378 41.279 171.99 41.4422C171.6 41.6031 171.312 41.8214 171.126 42.0904C170.94 42.3616 170.849 42.6673 170.849 43.0097C170.849 43.4004 170.961 43.713 171.184 43.9521C171.407 44.1888 171.701 44.375 172.068 44.5083C172.433 44.6416 172.835 44.7611 173.272 44.8645C173.708 44.9702 174.145 45.0829 174.576 45.207C175.008 45.3311 175.408 45.4897 175.773 45.685C176.138 45.8804 176.435 46.1401 176.657 46.4619C176.88 46.786 176.993 47.2089 176.993 47.7306C176.993 48.2156 176.859 48.666 176.593 49.0798C176.327 49.4935 175.92 49.8267 175.373 50.0796C174.827 50.3324 174.126 50.4588 173.269 50.4588Z" fill="url(#paint28_linear_17_153)"/>
<path d="M179.285 50.3738V40.3873H183.02C183.865 40.3873 184.593 40.5229 185.202 40.7941C185.81 41.0653 186.279 41.456 186.605 41.964C186.934 42.4719 187.097 43.0879 187.097 43.8119C187.097 44.5359 186.934 45.1219 186.605 45.6299C186.277 46.1378 185.808 46.5309 185.202 46.8067C184.593 47.0825 183.867 47.2204 183.02 47.2204H179.868L180.339 46.7216V50.3738H179.285ZM180.339 46.8067L179.868 46.2941H182.99C183.987 46.2941 184.745 46.0781 185.264 45.646C185.78 45.2139 186.04 44.6025 186.04 43.8119C186.04 43.0212 185.78 42.3938 185.264 41.9571C184.745 41.5204 183.987 41.2997 182.99 41.2997H179.868L180.339 40.801V46.8067Z" fill="url(#paint29_linear_17_153)"/>
<path d="M189.38 50.3738V40.3873H190.434V49.4613H196.022V50.3738H189.377H189.38Z" fill="url(#paint30_linear_17_153)"/>
<path d="M196.181 50.3738L200.742 40.3873H201.783L206.344 50.3738H205.233L201.041 41.0009H201.468L197.276 50.3738H196.178H196.181ZM197.977 47.7053L198.291 46.8503H204.093L204.408 47.7053H197.979H197.977Z" fill="url(#paint31_linear_17_153)"/>
<path d="M209.709 50.3738V46.6642L209.953 47.3215L205.717 40.3873H206.843L210.564 46.478H209.964L213.685 40.3873H214.739L210.504 47.3215L210.747 46.6642V50.3738H209.707H209.709Z" fill="url(#paint32_linear_17_153)"/>
<path d="M222.868 50.4588C222.126 50.4588 221.416 50.337 220.737 50.0956C220.057 49.852 219.533 49.5417 219.161 49.1602L219.574 48.3466C219.926 48.689 220.399 48.9763 220.994 49.2108C221.589 49.4429 222.213 49.5601 222.868 49.5601C223.523 49.5601 224.007 49.482 224.4 49.3257C224.795 49.1694 225.085 48.9579 225.271 48.6913C225.457 48.4247 225.548 48.1305 225.548 47.8064C225.548 47.4157 225.436 47.1031 225.213 46.8641C224.99 46.6274 224.696 46.4389 224.336 46.301C223.975 46.1631 223.575 46.0413 223.139 45.9379C222.703 45.8321 222.264 45.7218 221.828 45.6023C221.391 45.4828 220.989 45.3242 220.624 45.1242C220.259 44.9243 219.963 44.66 219.74 44.3313C219.517 44.0026 219.404 43.5728 219.404 43.0396C219.404 42.5454 219.535 42.0904 219.797 41.6767C220.059 41.2629 220.461 40.9297 221.003 40.6792C221.545 40.4263 222.239 40.2999 223.084 40.2999C223.644 40.2999 224.2 40.3781 224.751 40.5344C225.303 40.6906 225.778 40.9067 226.178 41.1848L225.822 42.026C225.395 41.741 224.94 41.5319 224.46 41.3985C223.98 41.2652 223.516 41.1986 223.07 41.1986C222.471 41.1986 221.977 41.279 221.589 41.4422C221.198 41.6031 220.911 41.8214 220.725 42.0904C220.539 42.3616 220.447 42.6673 220.447 43.0097C220.447 43.4004 220.56 43.713 220.782 43.9521C221.005 44.1888 221.299 44.375 221.667 44.5083C222.032 44.6416 222.434 44.7611 222.87 44.8645C223.307 44.9702 223.743 45.0829 224.175 45.207C224.607 45.3311 225.006 45.4897 225.372 45.685C225.737 45.8804 226.033 46.1401 226.256 46.4619C226.479 46.786 226.591 47.2089 226.591 47.7306C226.591 48.2156 226.458 48.666 226.192 49.0798C225.925 49.4935 225.519 49.8267 224.972 50.0796C224.425 50.3324 223.725 50.4588 222.868 50.4588Z" fill="url(#paint33_linear_17_153)"/>
<path d="M233.248 50.4588C232.497 50.4588 231.801 50.3324 231.16 50.0796C230.519 49.8267 229.963 49.4705 229.492 49.0085C229.021 48.5465 228.656 48.011 228.394 47.3973C228.133 46.7837 228.002 46.1102 228.002 45.3794C228.002 44.6485 228.133 43.975 228.394 43.3614C228.656 42.7477 229.021 42.2099 229.492 41.7502C229.963 41.2882 230.517 40.932 231.153 40.6815C231.789 40.4286 232.487 40.3022 233.248 40.3022C234.008 40.3022 234.692 40.4286 235.329 40.6815C235.965 40.9343 236.518 41.2882 236.989 41.7433C237.46 42.2007 237.825 42.7362 238.087 43.3545C238.349 43.9727 238.48 44.6485 238.48 45.3794C238.48 46.1102 238.349 46.7883 238.087 47.4042C237.825 48.0225 237.46 48.5603 236.989 49.0154C236.518 49.4728 235.965 49.8267 235.329 50.0796C234.692 50.3324 233.999 50.4588 233.248 50.4588ZM233.248 49.5165C233.847 49.5165 234.401 49.4153 234.908 49.2108C235.416 49.0062 235.859 48.7166 236.234 48.3397C236.608 47.965 236.902 47.5261 237.111 47.0273C237.32 46.5286 237.426 45.9792 237.426 45.3794C237.426 44.7795 237.32 44.2302 237.111 43.7314C236.902 43.2327 236.61 42.7937 236.234 42.419C235.857 42.0444 235.416 41.7525 234.908 41.5479C234.401 41.3434 233.847 41.2423 233.248 41.2423C232.648 41.2423 232.092 41.3434 231.58 41.5479C231.068 41.7525 230.622 42.0421 230.248 42.419C229.871 42.7937 229.577 43.2327 229.364 43.7314C229.15 44.2302 229.042 44.7795 229.042 45.3794C229.042 45.9792 229.148 46.5148 229.364 47.0204C229.577 47.5238 229.871 47.965 230.248 48.3397C230.622 48.7143 231.068 49.0062 231.58 49.2108C232.092 49.4153 232.648 49.5165 233.248 49.5165Z" fill="url(#paint34_linear_17_153)"/>
<path d="M244.868 50.4588C243.593 50.4588 242.591 50.0934 241.859 49.3602C241.126 48.627 240.761 47.5444 240.761 46.1079V40.3873H241.815V46.0643C241.815 47.2433 242.081 48.1144 242.614 48.6752C243.147 49.2361 243.898 49.5165 244.868 49.5165C245.837 49.5165 246.602 49.2361 247.135 48.6752C247.667 48.1144 247.934 47.2433 247.934 46.0643V40.3873H248.961V46.1079C248.961 47.5444 248.598 48.6293 247.87 49.3602C247.141 50.0934 246.142 50.4588 244.87 50.4588H244.868Z" fill="url(#paint35_linear_17_153)"/>
<path d="M252.14 50.3738V40.3873H253.194V49.4613H258.782V50.3738H252.137H252.14Z" fill="url(#paint36_linear_17_153)"/>
<path d="M261.377 50.3738V41.2997H257.87V40.3873H265.939V41.2997H262.432V50.3738H261.377Z" fill="url(#paint37_linear_17_153)"/>
<path d="M267.623 50.3738V40.3873H268.677V50.3738H267.623Z" fill="url(#paint38_linear_17_153)"/>
<path d="M276.289 50.4588C275.538 50.4588 274.842 50.3324 274.201 50.0796C273.56 49.8267 273.004 49.4705 272.533 49.0085C272.063 48.5465 271.697 48.011 271.435 47.3973C271.174 46.7837 271.043 46.1102 271.043 45.3794C271.043 44.6485 271.174 43.975 271.435 43.3614C271.697 42.7477 272.063 42.2099 272.533 41.7502C273.004 41.2882 273.558 40.932 274.194 40.6815C274.83 40.4286 275.529 40.3022 276.289 40.3022C277.049 40.3022 277.733 40.4286 278.37 40.6815C279.006 40.9343 279.56 41.2882 280.03 41.7433C280.501 42.2007 280.866 42.7362 281.128 43.3545C281.39 43.9727 281.521 44.6485 281.521 45.3794C281.521 46.1102 281.39 46.7883 281.128 47.4042C280.866 48.0225 280.501 48.5603 280.03 49.0154C279.56 49.4728 279.006 49.8267 278.37 50.0796C277.733 50.3324 277.04 50.4588 276.289 50.4588ZM276.289 49.5165C276.888 49.5165 277.442 49.4153 277.949 49.2108C278.457 49.0062 278.9 48.7166 279.275 48.3397C279.649 47.965 279.943 47.5261 280.152 47.0273C280.361 46.5286 280.467 45.9792 280.467 45.3794C280.467 44.7795 280.361 44.2302 280.152 43.7314C279.943 43.2327 279.651 42.7937 279.275 42.419C278.898 42.0444 278.457 41.7525 277.949 41.5479C277.442 41.3434 276.888 41.2423 276.289 41.2423C275.689 41.2423 275.133 41.3434 274.621 41.5479C274.109 41.7525 273.663 42.0421 273.289 42.419C272.912 42.7937 272.618 43.2327 272.405 43.7314C272.191 44.2302 272.083 44.7795 272.083 45.3794C272.083 45.9792 272.189 46.5148 272.405 47.0204C272.618 47.5238 272.912 47.965 273.289 48.3397C273.663 48.7143 274.109 49.0062 274.621 49.2108C275.133 49.4153 275.689 49.5165 276.289 49.5165Z" fill="url(#paint39_linear_17_153)"/>
<path d="M283.889 50.3738V40.3873H284.76L291.646 49.0614H291.189V40.3873H292.229V50.3738H291.359L284.486 41.6996H284.943V50.3738H283.889Z" fill="url(#paint40_linear_17_153)"/>
<defs>
<linearGradient id="paint0_linear_17_153" x1="0" y1="28.0955" x2="48.8316" y2="28.0955" gradientUnits="userSpaceOnUse">
<stop stop-color="#D2B782"/>
<stop offset="0.23" stop-color="#FBEA90"/>
<stop offset="0.41" stop-color="#CEAA62"/>
<stop offset="0.59" stop-color="#FFD893"/>
<stop offset="0.77" stop-color="#F8F0AF"/>
<stop offset="1" stop-color="#F6F4B7"/>
</linearGradient>
<linearGradient id="paint1_linear_17_153" x1="54.9343" y1="19.1548" x2="69.044" y2="19.1548" gradientUnits="userSpaceOnUse">
<stop stop-color="#D2B782"/>
<stop offset="0.23" stop-color="#FBEA90"/>
<stop offset="0.41" stop-color="#CEAA62"/>
<stop offset="0.59" stop-color="#FFD893"/>
<stop offset="0.77" stop-color="#F8F0AF"/>
<stop offset="1" stop-color="#F6F4B7"/>
</linearGradient>
<linearGradient id="paint2_linear_17_153" x1="71.4673" y1="21.0233" x2="93.5035" y2="21.0233" gradientUnits="userSpaceOnUse">
<stop stop-color="#D2B782"/>
<stop offset="0.23" stop-color="#FBEA90"/>
<stop offset="0.41" stop-color="#CEAA62"/>
<stop offset="0.59" stop-color="#FFD893"/>
<stop offset="0.77" stop-color="#F8F0AF"/>
<stop offset="1" stop-color="#F6F4B7"/>
</linearGradient>
<linearGradient id="paint3_linear_17_153" x1="96.0483" y1="21.1199" x2="108.435" y2="21.1199" gradientUnits="userSpaceOnUse">
<stop stop-color="#D2B782"/>
<stop offset="0.23" stop-color="#FBEA90"/>
<stop offset="0.41" stop-color="#CEAA62"/>
<stop offset="0.59" stop-color="#FFD893"/>
<stop offset="0.77" stop-color="#F8F0AF"/>
<stop offset="1" stop-color="#F6F4B7"/>
</linearGradient>
<linearGradient id="paint4_linear_17_153" x1="111.853" y1="21.0233" x2="119.95" y2="21.0233" gradientUnits="userSpaceOnUse">
<stop stop-color="#D2B782"/>
<stop offset="0.23" stop-color="#FBEA90"/>
<stop offset="0.41" stop-color="#CEAA62"/>
<stop offset="0.59" stop-color="#FFD893"/>
<stop offset="0.77" stop-color="#F8F0AF"/>
<stop offset="1" stop-color="#F6F4B7"/>
</linearGradient>
<linearGradient id="paint5_linear_17_153" x1="121.114" y1="19.773" x2="131.076" y2="19.773" gradientUnits="userSpaceOnUse">
<stop stop-color="#D2B782"/>
<stop offset="0.23" stop-color="#FBEA90"/>
<stop offset="0.41" stop-color="#CEAA62"/>
<stop offset="0.59" stop-color="#FFD893"/>
<stop offset="0.77" stop-color="#F8F0AF"/>
<stop offset="1" stop-color="#F6F4B7"/>
</linearGradient>
<linearGradient id="paint6_linear_17_153" x1="139.002" y1="19.1548" x2="153.112" y2="19.1548" gradientUnits="userSpaceOnUse">
<stop stop-color="#D2B782"/>
<stop offset="0.23" stop-color="#FBEA90"/>
<stop offset="0.41" stop-color="#CEAA62"/>
<stop offset="0.59" stop-color="#FFD893"/>
<stop offset="0.77" stop-color="#F8F0AF"/>
<stop offset="1" stop-color="#F6F4B7"/>
</linearGradient>
<linearGradient id="paint7_linear_17_153" x1="153.985" y1="19.773" x2="163.946" y2="19.773" gradientUnits="userSpaceOnUse">
<stop stop-color="#D2B782"/>
<stop offset="0.23" stop-color="#FBEA90"/>
<stop offset="0.41" stop-color="#CEAA62"/>
<stop offset="0.59" stop-color="#FFD893"/>
<stop offset="0.77" stop-color="#F8F0AF"/>
<stop offset="1" stop-color="#F6F4B7"/>
</linearGradient>
<linearGradient id="paint8_linear_17_153" x1="164.796" y1="21.1199" x2="177.183" y2="21.1199" gradientUnits="userSpaceOnUse">
<stop stop-color="#D2B782"/>
<stop offset="0.23" stop-color="#FBEA90"/>
<stop offset="0.41" stop-color="#CEAA62"/>
<stop offset="0.59" stop-color="#FFD893"/>
<stop offset="0.77" stop-color="#F8F0AF"/>
<stop offset="1" stop-color="#F6F4B7"/>
</linearGradient>
<linearGradient id="paint9_linear_17_153" x1="180.601" y1="21.0233" x2="193.932" y2="21.0233" gradientUnits="userSpaceOnUse">
<stop stop-color="#D2B782"/>
<stop offset="0.23" stop-color="#FBEA90"/>
<stop offset="0.41" stop-color="#CEAA62"/>
<stop offset="0.59" stop-color="#FFD893"/>
<stop offset="0.77" stop-color="#F8F0AF"/>
<stop offset="1" stop-color="#F6F4B7"/>
</linearGradient>
<linearGradient id="paint10_linear_17_153" x1="196.527" y1="18.7433" x2="210.731" y2="18.7433" gradientUnits="userSpaceOnUse">
<stop stop-color="#D2B782"/>
<stop offset="0.23" stop-color="#FBEA90"/>
<stop offset="0.41" stop-color="#CEAA62"/>
<stop offset="0.59" stop-color="#FFD893"/>
<stop offset="0.77" stop-color="#F8F0AF"/>
<stop offset="1" stop-color="#F6F4B7"/>
</linearGradient>
<linearGradient id="paint11_linear_17_153" x1="221.35" y1="19.1548" x2="234.488" y2="19.1548" gradientUnits="userSpaceOnUse">
<stop stop-color="#D2B782"/>
<stop offset="0.23" stop-color="#FBEA90"/>
<stop offset="0.41" stop-color="#CEAA62"/>
<stop offset="0.59" stop-color="#FFD893"/>
<stop offset="0.77" stop-color="#F8F0AF"/>
<stop offset="1" stop-color="#F6F4B7"/>
</linearGradient>
<linearGradient id="paint12_linear_17_153" x1="236.282" y1="23.4734" x2="250.706" y2="23.4734" gradientUnits="userSpaceOnUse">
<stop stop-color="#D2B782"/>
<stop offset="0.23" stop-color="#FBEA90"/>
<stop offset="0.41" stop-color="#CEAA62"/>
<stop offset="0.59" stop-color="#FFD893"/>
<stop offset="0.77" stop-color="#F8F0AF"/>
<stop offset="1" stop-color="#F6F4B7"/>
</linearGradient>
<linearGradient id="paint13_linear_17_153" x1="252.234" y1="23.57" x2="267.166" y2="23.57" gradientUnits="userSpaceOnUse">
<stop stop-color="#D2B782"/>
<stop offset="0.23" stop-color="#FBEA90"/>
<stop offset="0.41" stop-color="#CEAA62"/>
<stop offset="0.59" stop-color="#FFD893"/>
<stop offset="0.77" stop-color="#F8F0AF"/>
<stop offset="1" stop-color="#F6F4B7"/>
</linearGradient>
<linearGradient id="paint14_linear_17_153" x1="268.716" y1="23.3769" x2="282.922" y2="23.3769" gradientUnits="userSpaceOnUse">
<stop stop-color="#D2B782"/>
<stop offset="0.23" stop-color="#FBEA90"/>
<stop offset="0.41" stop-color="#CEAA62"/>
<stop offset="0.59" stop-color="#FFD893"/>
<stop offset="0.77" stop-color="#F8F0AF"/>
<stop offset="1" stop-color="#F6F4B7"/>
</linearGradient>
<linearGradient id="paint15_linear_17_153" x1="283.891" y1="19.773" x2="293.855" y2="19.773" gradientUnits="userSpaceOnUse">
<stop stop-color="#D2B782"/>
<stop offset="0.23" stop-color="#FBEA90"/>
<stop offset="0.41" stop-color="#CEAA62"/>
<stop offset="0.59" stop-color="#FFD893"/>
<stop offset="0.77" stop-color="#F8F0AF"/>
<stop offset="1" stop-color="#F6F4B7"/>
</linearGradient>
<linearGradient id="paint16_linear_17_153" x1="56.5605" y1="45.3817" x2="57.6148" y2="45.3817" gradientUnits="userSpaceOnUse">
<stop stop-color="#D2B782"/>
<stop offset="0.23" stop-color="#FBEA90"/>
<stop offset="0.41" stop-color="#CEAA62"/>
<stop offset="0.59" stop-color="#FFD893"/>
<stop offset="0.77" stop-color="#F8F0AF"/>
<stop offset="1" stop-color="#F6F4B7"/>
</linearGradient>
<linearGradient id="paint17_linear_17_153" x1="60.8672" y1="45.3817" x2="69.2071" y2="45.3817" gradientUnits="userSpaceOnUse">
<stop stop-color="#D2B782"/>
<stop offset="0.23" stop-color="#FBEA90"/>
<stop offset="0.41" stop-color="#CEAA62"/>
<stop offset="0.59" stop-color="#FFD893"/>
<stop offset="0.77" stop-color="#F8F0AF"/>
<stop offset="1" stop-color="#F6F4B7"/>
</linearGradient>
<linearGradient id="paint18_linear_17_153" x1="70.8884" y1="45.3817" x2="78.9596" y2="45.3817" gradientUnits="userSpaceOnUse">
<stop stop-color="#D2B782"/>
<stop offset="0.23" stop-color="#FBEA90"/>
<stop offset="0.41" stop-color="#CEAA62"/>
<stop offset="0.59" stop-color="#FFD893"/>
<stop offset="0.77" stop-color="#F8F0AF"/>
<stop offset="1" stop-color="#F6F4B7"/>
</linearGradient>
<linearGradient id="paint19_linear_17_153" x1="80.641" y1="45.3817" x2="87.6993" y2="45.3817" gradientUnits="userSpaceOnUse">
<stop stop-color="#D2B782"/>
<stop offset="0.23" stop-color="#FBEA90"/>
<stop offset="0.41" stop-color="#CEAA62"/>
<stop offset="0.59" stop-color="#FFD893"/>
<stop offset="0.77" stop-color="#F8F0AF"/>
<stop offset="1" stop-color="#F6F4B7"/>
</linearGradient>
<linearGradient id="paint20_linear_17_153" x1="89.2657" y1="45.3817" x2="98.2488" y2="45.3817" gradientUnits="userSpaceOnUse">
<stop stop-color="#D2B782"/>
<stop offset="0.23" stop-color="#FBEA90"/>
<stop offset="0.41" stop-color="#CEAA62"/>
<stop offset="0.59" stop-color="#FFD893"/>
<stop offset="0.77" stop-color="#F8F0AF"/>
<stop offset="1" stop-color="#F6F4B7"/>
</linearGradient>
<linearGradient id="paint21_linear_17_153" x1="101.17" y1="45.3817" x2="109.141" y2="45.3817" gradientUnits="userSpaceOnUse">
<stop stop-color="#D2B782"/>
<stop offset="0.23" stop-color="#FBEA90"/>
<stop offset="0.41" stop-color="#CEAA62"/>
<stop offset="0.59" stop-color="#FFD893"/>
<stop offset="0.77" stop-color="#F8F0AF"/>
<stop offset="1" stop-color="#F6F4B7"/>
</linearGradient>
<linearGradient id="paint22_linear_17_153" x1="109.883" y1="45.3817" x2="120.046" y2="45.3817" gradientUnits="userSpaceOnUse">
<stop stop-color="#D2B782"/>
<stop offset="0.23" stop-color="#FBEA90"/>
<stop offset="0.41" stop-color="#CEAA62"/>
<stop offset="0.59" stop-color="#FFD893"/>
<stop offset="0.77" stop-color="#F8F0AF"/>
<stop offset="1" stop-color="#F6F4B7"/>
</linearGradient>
<linearGradient id="paint23_linear_17_153" x1="119.633" y1="45.3817" x2="127.704" y2="45.3817" gradientUnits="userSpaceOnUse">
<stop stop-color="#D2B782"/>
<stop offset="0.23" stop-color="#FBEA90"/>
<stop offset="0.41" stop-color="#CEAA62"/>
<stop offset="0.59" stop-color="#FFD893"/>
<stop offset="0.77" stop-color="#F8F0AF"/>
<stop offset="1" stop-color="#F6F4B7"/>
</linearGradient>
<linearGradient id="paint24_linear_17_153" x1="129.385" y1="45.3817" x2="136.444" y2="45.3817" gradientUnits="userSpaceOnUse">
<stop stop-color="#D2B782"/>
<stop offset="0.23" stop-color="#FBEA90"/>
<stop offset="0.41" stop-color="#CEAA62"/>
<stop offset="0.59" stop-color="#FFD893"/>
<stop offset="0.77" stop-color="#F8F0AF"/>
<stop offset="1" stop-color="#F6F4B7"/>
</linearGradient>
<linearGradient id="paint25_linear_17_153" x1="138.924" y1="45.3817" x2="148.332" y2="45.3817" gradientUnits="userSpaceOnUse">
<stop stop-color="#D2B782"/>
<stop offset="0.23" stop-color="#FBEA90"/>
<stop offset="0.41" stop-color="#CEAA62"/>
<stop offset="0.59" stop-color="#FFD893"/>
<stop offset="0.77" stop-color="#F8F0AF"/>
<stop offset="1" stop-color="#F6F4B7"/>
</linearGradient>
<linearGradient id="paint26_linear_17_153" x1="154.435" y1="45.3817" x2="163.845" y2="45.3817" gradientUnits="userSpaceOnUse">
<stop stop-color="#D2B782"/>
<stop offset="0.23" stop-color="#FBEA90"/>
<stop offset="0.41" stop-color="#CEAA62"/>
<stop offset="0.59" stop-color="#FFD893"/>
<stop offset="0.77" stop-color="#F8F0AF"/>
<stop offset="1" stop-color="#F6F4B7"/>
</linearGradient>
<linearGradient id="paint27_linear_17_153" x1="166.211" y1="45.3817" x2="167.265" y2="45.3817" gradientUnits="userSpaceOnUse">
<stop stop-color="#D2B782"/>
<stop offset="0.23" stop-color="#FBEA90"/>
<stop offset="0.41" stop-color="#CEAA62"/>
<stop offset="0.59" stop-color="#FFD893"/>
<stop offset="0.77" stop-color="#F8F0AF"/>
<stop offset="1" stop-color="#F6F4B7"/>
</linearGradient>
<linearGradient id="paint28_linear_17_153" x1="169.562" y1="45.3817" x2="176.99" y2="45.3817" gradientUnits="userSpaceOnUse">
<stop stop-color="#D2B782"/>
<stop offset="0.23" stop-color="#FBEA90"/>
<stop offset="0.41" stop-color="#CEAA62"/>
<stop offset="0.59" stop-color="#FFD893"/>
<stop offset="0.77" stop-color="#F8F0AF"/>
<stop offset="1" stop-color="#F6F4B7"/>
</linearGradient>
<linearGradient id="paint29_linear_17_153" x1="179.285" y1="45.3817" x2="187.099" y2="45.3817" gradientUnits="userSpaceOnUse">
<stop stop-color="#D2B782"/>
<stop offset="0.23" stop-color="#FBEA90"/>
<stop offset="0.41" stop-color="#CEAA62"/>
<stop offset="0.59" stop-color="#FFD893"/>
<stop offset="0.77" stop-color="#F8F0AF"/>
<stop offset="1" stop-color="#F6F4B7"/>
</linearGradient>
<linearGradient id="paint30_linear_17_153" x1="189.38" y1="45.3817" x2="196.022" y2="45.3817" gradientUnits="userSpaceOnUse">
<stop stop-color="#D2B782"/>
<stop offset="0.23" stop-color="#FBEA90"/>
<stop offset="0.41" stop-color="#CEAA62"/>
<stop offset="0.59" stop-color="#FFD893"/>
<stop offset="0.77" stop-color="#F8F0AF"/>
<stop offset="1" stop-color="#F6F4B7"/>
</linearGradient>
<linearGradient id="paint31_linear_17_153" x1="196.181" y1="45.3817" x2="206.344" y2="45.3817" gradientUnits="userSpaceOnUse">
<stop stop-color="#D2B782"/>
<stop offset="0.23" stop-color="#FBEA90"/>
<stop offset="0.41" stop-color="#CEAA62"/>
<stop offset="0.59" stop-color="#FFD893"/>
<stop offset="0.77" stop-color="#F8F0AF"/>
<stop offset="1" stop-color="#F6F4B7"/>
</linearGradient>
<linearGradient id="paint32_linear_17_153" x1="205.717" y1="45.3817" x2="214.742" y2="45.3817" gradientUnits="userSpaceOnUse">
<stop stop-color="#D2B782"/>
<stop offset="0.23" stop-color="#FBEA90"/>
<stop offset="0.41" stop-color="#CEAA62"/>
<stop offset="0.59" stop-color="#FFD893"/>
<stop offset="0.77" stop-color="#F8F0AF"/>
<stop offset="1" stop-color="#F6F4B7"/>
</linearGradient>
<linearGradient id="paint33_linear_17_153" x1="219.161" y1="45.3817" x2="226.589" y2="45.3817" gradientUnits="userSpaceOnUse">
<stop stop-color="#D2B782"/>
<stop offset="0.23" stop-color="#FBEA90"/>
<stop offset="0.41" stop-color="#CEAA62"/>
<stop offset="0.59" stop-color="#FFD893"/>
<stop offset="0.77" stop-color="#F8F0AF"/>
<stop offset="1" stop-color="#F6F4B7"/>
</linearGradient>
<linearGradient id="paint34_linear_17_153" x1="228.002" y1="45.3817" x2="238.48" y2="45.3817" gradientUnits="userSpaceOnUse">
<stop stop-color="#D2B782"/>
<stop offset="0.23" stop-color="#FBEA90"/>
<stop offset="0.41" stop-color="#CEAA62"/>
<stop offset="0.59" stop-color="#FFD893"/>
<stop offset="0.77" stop-color="#F8F0AF"/>
<stop offset="1" stop-color="#F6F4B7"/>
</linearGradient>
<linearGradient id="paint35_linear_17_153" x1="240.761" y1="45.423" x2="248.958" y2="45.423" gradientUnits="userSpaceOnUse">
<stop stop-color="#D2B782"/>
<stop offset="0.23" stop-color="#FBEA90"/>
<stop offset="0.41" stop-color="#CEAA62"/>
<stop offset="0.59" stop-color="#FFD893"/>
<stop offset="0.77" stop-color="#F8F0AF"/>
<stop offset="1" stop-color="#F6F4B7"/>
</linearGradient>
<linearGradient id="paint36_linear_17_153" x1="252.14" y1="45.3817" x2="258.782" y2="45.3817" gradientUnits="userSpaceOnUse">
<stop stop-color="#D2B782"/>
<stop offset="0.23" stop-color="#FBEA90"/>
<stop offset="0.41" stop-color="#CEAA62"/>
<stop offset="0.59" stop-color="#FFD893"/>
<stop offset="0.77" stop-color="#F8F0AF"/>
<stop offset="1" stop-color="#F6F4B7"/>
</linearGradient>
<linearGradient id="paint37_linear_17_153" x1="257.87" y1="45.3817" x2="265.939" y2="45.3817" gradientUnits="userSpaceOnUse">
<stop stop-color="#D2B782"/>
<stop offset="0.23" stop-color="#FBEA90"/>
<stop offset="0.41" stop-color="#CEAA62"/>
<stop offset="0.59" stop-color="#FFD893"/>
<stop offset="0.77" stop-color="#F8F0AF"/>
<stop offset="1" stop-color="#F6F4B7"/>
</linearGradient>
<linearGradient id="paint38_linear_17_153" x1="267.623" y1="45.3817" x2="268.677" y2="45.3817" gradientUnits="userSpaceOnUse">
<stop stop-color="#D2B782"/>
<stop offset="0.23" stop-color="#FBEA90"/>
<stop offset="0.41" stop-color="#CEAA62"/>
<stop offset="0.59" stop-color="#FFD893"/>
<stop offset="0.77" stop-color="#F8F0AF"/>
<stop offset="1" stop-color="#F6F4B7"/>
</linearGradient>
<linearGradient id="paint39_linear_17_153" x1="271.043" y1="45.3817" x2="281.521" y2="45.3817" gradientUnits="userSpaceOnUse">
<stop stop-color="#D2B782"/>
<stop offset="0.23" stop-color="#FBEA90"/>
<stop offset="0.41" stop-color="#CEAA62"/>
<stop offset="0.59" stop-color="#FFD893"/>
<stop offset="0.77" stop-color="#F8F0AF"/>
<stop offset="1" stop-color="#F6F4B7"/>
</linearGradient>
<linearGradient id="paint40_linear_17_153" x1="283.889" y1="45.3817" x2="292.229" y2="45.3817" gradientUnits="userSpaceOnUse">
<stop stop-color="#D2B782"/>
<stop offset="0.23" stop-color="#FBEA90"/>
<stop offset="0.41" stop-color="#CEAA62"/>
<stop offset="0.59" stop-color="#FFD893"/>
<stop offset="0.77" stop-color="#F8F0AF"/>
<stop offset="1" stop-color="#F6F4B7"/>
</linearGradient>
</defs>
</svg>
