<svg preserveAspectRatio="none" width="100%" height="100%" overflow="visible" style="display: block;" viewBox="0 0 238.919 22.8988" fill="none" xmlns="http://www.w3.org/2000/svg">
<g id="Group">
<path id="Vector" d="M6.909 18.2906C5.55155 18.2906 4.24922 18.109 3.00661 17.7458C1.7617 17.3827 0.760268 16.9092 2.26498e-06 16.3277L1.33219 13.3674C2.0603 13.8846 2.91933 14.3098 3.91388 14.6407C4.90842 14.9717 5.91446 15.1372 6.93197 15.1372C7.70832 15.1372 8.33306 15.0613 8.81081 14.9073C9.28627 14.7533 9.63999 14.5396 9.86508 14.2638C10.0925 13.988 10.205 13.6731 10.205 13.3169C10.205 12.8641 10.0259 12.5032 9.67214 12.2366C9.31613 11.97 8.84757 11.7517 8.26646 11.5816C7.68535 11.4115 7.04222 11.2506 6.33938 11.0966C5.63653 10.9426 4.93369 10.7542 4.23085 10.5266C3.528 10.3014 2.88488 10.0095 2.30377 9.65323C1.72266 9.29698 1.2495 8.82811 0.886596 8.24661C0.52369 7.66512 0.342238 6.92044 0.342238 6.01488C0.342238 5.04496 0.60408 4.16008 1.13006 3.35794C1.65605 2.55811 2.44617 1.91915 3.50503 1.44109C4.56389 0.965323 5.89379 0.72629 7.49241 0.72629C8.55816 0.72629 9.61013 0.852701 10.6437 1.10323C11.6773 1.35375 12.5915 1.73069 13.3839 2.23173L12.1711 5.21504C11.3787 4.76226 10.5863 4.42669 9.79618 4.20835C9.00375 3.99 8.22741 3.88198 7.46944 3.88198C6.71147 3.88198 6.08672 3.97161 5.60208 4.14859C5.11744 4.32786 4.77061 4.5577 4.5593 4.8404C4.35028 5.12311 4.24463 5.45177 4.24463 5.82181C4.24463 6.25851 4.42149 6.61016 4.7775 6.87677C5.13352 7.14339 5.60208 7.35944 6.18319 7.52032C6.7643 7.68121 7.40743 7.84439 8.11027 8.00528C8.81311 8.16617 9.51596 8.35234 10.2188 8.56379C10.9216 8.77294 11.5648 9.05794 12.1459 9.4119C12.727 9.76815 13.2001 10.237 13.563 10.8185C13.926 11.4 14.1074 12.1355 14.1074 13.025C14.1074 13.9788 13.841 14.8522 13.3081 15.6451C12.7752 16.4381 11.9782 17.077 10.9193 17.562C9.86048 18.0469 8.5237 18.2906 6.9067 18.2906H6.909Z" fill="url(#paint0_linear_0_4)"/>
<path id="Vector_2" d="M16.5329 17.9987V4.94843H20.1459V8.51323L19.466 7.46976C19.9185 6.58028 20.5616 5.90456 21.3931 5.44488C22.2246 4.9852 23.1755 4.75307 24.2412 4.75307C25.4379 4.75307 26.483 5.05645 27.3811 5.66323C28.2791 6.27 28.8717 7.19625 29.1634 8.44198L27.8312 8.07883C28.2676 7.06064 28.9659 6.25161 29.9283 5.65403C30.8884 5.05645 31.9932 4.75766 33.2381 4.75766C34.2717 4.75766 35.1904 4.96452 35.9897 5.37593C36.789 5.78734 37.4207 6.41939 37.8801 7.2675C38.3394 8.1156 38.5714 9.20504 38.5714 10.5289V18.001H34.7908V11.1127C34.7908 10.0623 34.5726 9.28548 34.1362 8.78443C33.6998 8.28339 33.0865 8.03286 32.2941 8.03286C31.7451 8.03286 31.2513 8.15698 30.8149 8.4098C30.3785 8.66032 30.0385 9.03726 29.7974 9.53831C29.5562 10.0394 29.4345 10.6783 29.4345 11.4552V18.0056H25.6538V11.1173C25.6538 10.0669 25.4402 9.29008 25.0107 8.78903C24.5835 8.28798 23.9725 8.03746 23.1801 8.03746C22.6311 8.03746 22.1373 8.16157 21.7009 8.41439C21.2645 8.66492 20.9245 9.04185 20.6834 9.5429C20.4399 10.044 20.3205 10.6829 20.3205 11.4598V18.0102H16.5398L16.5329 17.9987Z" fill="url(#paint1_linear_0_4)"/>
<path id="Vector_3" d="M45.9857 18.1917C44.9682 18.1917 44.0954 18.0171 43.3673 17.67C42.6392 17.3229 42.0834 16.8495 41.6952 16.2519C41.307 15.6543 41.1141 14.9832 41.1141 14.2385C41.1141 13.4938 41.3047 12.7836 41.6837 12.1998C42.0627 11.6183 42.6645 11.161 43.489 10.83C44.3136 10.499 45.3885 10.3335 46.7138 10.3335H50.1798V12.5423H47.125C46.2361 12.5423 45.6251 12.6871 45.2944 12.979C44.9636 13.2709 44.7983 13.634 44.7983 14.0707C44.7983 14.5557 44.9889 14.9395 45.3679 15.2222C45.7469 15.5049 46.2683 15.6474 46.9321 15.6474C47.5958 15.6474 48.1287 15.498 48.6294 15.1992C49.1302 14.9004 49.4931 14.4592 49.7205 13.8777L50.3016 15.6244C50.0259 16.4656 49.5252 17.1046 48.7994 17.5413C48.0713 17.978 47.1342 18.1963 45.988 18.1963L45.9857 18.1917ZM49.9616 17.9987V15.4521L49.7182 14.8935V10.3335C49.7182 9.52452 49.4724 8.89476 48.9786 8.44198C48.4847 7.98919 47.7291 7.76165 46.7116 7.76165C46.0156 7.76165 45.3334 7.86968 44.6627 8.08802C43.9921 8.30637 43.4224 8.60056 42.9539 8.9729L41.5964 6.32976C42.3084 5.82871 43.1629 5.44028 44.1666 5.16448C45.1681 4.88867 46.1856 4.75307 47.2215 4.75307C49.2083 4.75307 50.7518 5.22194 51.852 6.15968C52.9499 7.09742 53.5011 8.56149 53.5011 10.5496V17.9964H49.9616V17.9987Z" fill="url(#paint2_linear_0_4)"/>
<path id="Vector_4" d="M56.9189 17.9987V4.94843H60.5318V8.63504L60.0219 7.56859C60.4101 6.64694 61.0326 5.94823 61.8893 5.47016C62.746 4.9944 63.7888 4.75536 65.0153 4.75536V8.24891C64.8546 8.23282 64.7076 8.22133 64.5789 8.21214C64.4503 8.20294 64.3125 8.20065 64.1678 8.20065C63.1342 8.20065 62.2981 8.49484 61.6596 9.08552C61.0211 9.67621 60.7018 10.5933 60.7018 11.839V18.001H56.9212L56.9189 17.9987Z" fill="url(#paint3_linear_0_4)"/>
<path id="Vector_5" d="M66.1799 7.85819V4.94843H75.2227V7.85819H66.1799ZM73.0636 18.1917C71.5293 18.1917 70.3326 17.801 69.4759 17.015C68.6192 16.2312 68.1919 15.0613 68.1919 13.5099V2.06165H71.9726V13.4617C71.9726 14.011 72.1173 14.4362 72.409 14.735C72.7007 15.0337 73.0958 15.1831 73.5965 15.1831C74.1937 15.1831 74.7036 15.0223 75.1239 14.6982L76.1414 17.3666C75.7532 17.6424 75.2893 17.847 74.7472 17.9849C74.2051 18.1228 73.6447 18.1917 73.0613 18.1917H73.0636Z" fill="url(#paint4_linear_0_4)"/>
<path id="Vector_6" d="M90.9769 18.2906C89.6195 18.2906 88.3171 18.109 87.0745 17.7458C85.8296 17.3827 84.8282 16.9092 84.0679 16.3277L85.4001 13.3674C86.1282 13.8846 86.9872 14.3098 87.9818 14.6407C88.9763 14.9717 89.9824 15.1372 90.9999 15.1372C91.7762 15.1372 92.401 15.0613 92.8787 14.9073C93.3542 14.7533 93.7079 14.5396 93.933 14.2638C94.1604 13.988 94.2729 13.6731 94.2729 13.3169C94.2729 12.8641 94.0938 12.5032 93.7401 12.2366C93.384 11.97 92.9155 11.7517 92.3344 11.5816C91.7533 11.4115 91.1102 11.2506 90.4073 11.0966C89.7045 10.9426 89.0016 10.7542 88.2988 10.5266C87.5959 10.3014 86.9528 10.0095 86.3717 9.65323C85.7906 9.29698 85.3174 8.82811 84.9545 8.24661C84.5916 7.66512 84.4102 6.92044 84.4102 6.01488C84.4102 5.04496 84.672 4.16008 85.198 3.35794C85.724 2.55811 86.5141 1.91915 87.573 1.44109C88.6318 0.965323 89.9617 0.72629 91.5603 0.72629C92.6261 0.72629 93.6781 0.852701 94.7116 1.10323C95.7452 1.35375 96.6594 1.73069 97.4518 2.23173L96.2391 5.21504C95.4466 4.76226 94.6542 4.42669 93.8641 4.20835C93.0717 3.99 92.2953 3.88198 91.5374 3.88198C90.7794 3.88198 90.1546 3.97161 89.67 4.14859C89.1854 4.32786 88.8385 4.5577 88.6272 4.8404C88.4182 5.12311 88.3125 5.45177 88.3125 5.82181C88.3125 6.25851 88.4894 6.61016 88.8454 6.87677C89.2014 7.14339 89.67 7.35944 90.2511 7.52032C90.8322 7.68121 91.4753 7.84439 92.1782 8.00528C92.881 8.16617 93.5839 8.35234 94.2867 8.56379C94.9896 8.77294 95.6327 9.05794 96.2138 9.4119C96.7949 9.76815 97.2681 10.237 97.631 10.8185C97.9939 11.4 98.1753 12.1355 98.1753 13.025C98.1753 13.9788 97.9089 14.8522 97.376 15.6451C96.8431 16.4381 96.0461 17.077 94.9873 17.562C93.9284 18.0469 92.5916 18.2906 90.9746 18.2906H90.9769Z" fill="url(#paint5_linear_0_4)"/>
<path id="Vector_7" d="M99.0504 7.85819V4.94843H108.093V7.85819H99.0504ZM105.934 18.1917C104.4 18.1917 103.203 17.801 102.346 17.015C101.49 16.2312 101.063 15.0613 101.063 13.5099V2.06165H104.843V13.4617C104.843 14.011 104.988 14.4362 105.28 14.735C105.571 15.0337 105.966 15.1831 106.467 15.1831C107.064 15.1831 107.574 15.0223 107.994 14.6982L109.012 17.3666C108.624 17.6424 108.16 17.847 107.618 17.9849C107.076 18.1228 106.515 18.1917 105.932 18.1917H105.934Z" fill="url(#paint6_linear_0_4)"/>
<path id="Vector_8" d="M114.734 18.1917C113.716 18.1917 112.843 18.0171 112.115 17.67C111.387 17.3229 110.831 16.8495 110.443 16.2519C110.055 15.6543 109.862 14.9832 109.862 14.2385C109.862 13.4938 110.052 12.7836 110.431 12.1998C110.81 11.6183 111.412 11.161 112.237 10.83C113.061 10.499 114.136 10.3335 115.462 10.3335H118.928V12.5423H115.873C114.984 12.5423 114.373 12.6871 114.042 12.979C113.711 13.2709 113.546 13.634 113.546 14.0707C113.546 14.5557 113.737 14.9395 114.116 15.2222C114.495 15.5049 115.016 15.6474 115.68 15.6474C116.344 15.6474 116.876 15.498 117.377 15.1992C117.878 14.9004 118.241 14.4592 118.468 13.8777L119.049 15.6244C118.774 16.4656 118.273 17.1046 117.547 17.5413C116.819 17.978 115.882 18.1963 114.736 18.1963L114.734 18.1917ZM118.709 17.9987V15.4521L118.466 14.8935V10.3335C118.466 9.52452 118.22 8.89476 117.726 8.44198C117.233 7.98919 116.477 7.76165 115.459 7.76165C114.763 7.76165 114.081 7.86968 113.411 8.08802C112.74 8.30637 112.17 8.60056 111.702 8.9729L110.344 6.32976C111.056 5.82871 111.911 5.44028 112.914 5.16448C113.916 4.88867 114.933 4.75307 115.969 4.75307C117.956 4.75307 119.5 5.22194 120.6 6.15968C121.698 7.09742 122.249 8.56149 122.249 10.5496V17.9964H118.709V17.9987Z" fill="url(#paint7_linear_0_4)"/>
<path id="Vector_9" d="M125.667 17.9987V4.94843H129.28V8.56149L128.6 7.46976C129.068 6.59637 129.739 5.92524 130.612 5.45637C131.485 4.9875 132.479 4.75307 133.593 4.75307C134.627 4.75307 135.552 4.95992 136.368 5.37133C137.183 5.78274 137.826 6.4148 138.295 7.2629C138.763 8.11101 138.998 9.20044 138.998 10.5243V17.9964H135.217V11.1081C135.217 10.0577 134.987 9.28089 134.526 8.77984C134.064 8.27879 133.414 8.02827 132.573 8.02827C131.976 8.02827 131.439 8.15238 130.961 8.4052C130.483 8.65573 130.113 9.03956 129.847 9.55669C129.581 10.0738 129.447 10.7381 129.447 11.5448V17.9964H125.667V17.9987Z" fill="url(#paint8_linear_0_4)"/>
<path id="Vector_10" d="M148.114 18.1917C146.885 18.1917 145.778 17.9136 144.793 17.3551C143.807 16.7966 143.026 16.0175 142.454 15.0131C141.88 14.011 141.593 12.8296 141.593 11.4713C141.593 10.1129 141.88 8.90855 142.454 7.90645C143.029 6.90435 143.807 6.1275 144.793 5.57819C145.778 5.02887 146.885 4.75307 148.114 4.75307C149.212 4.75307 150.174 4.99669 150.999 5.48165C151.823 5.96661 152.462 6.7021 152.914 7.68811C153.367 8.67411 153.594 9.93593 153.594 11.4713C153.594 13.0066 153.376 14.2477 152.94 15.2429C152.503 16.2381 151.876 16.9782 151.061 17.4631C150.245 17.9481 149.262 18.1917 148.116 18.1917H148.114ZM148.769 15.0889C149.382 15.0889 149.94 14.9441 150.441 14.6522C150.941 14.3603 151.341 13.9443 151.64 13.4019C151.938 12.8595 152.088 12.2182 152.088 11.4735C152.088 10.7289 151.938 10.0669 151.64 9.53371C151.341 9.00048 150.941 8.58677 150.441 8.29718C149.94 8.00528 149.382 7.86048 148.769 7.86048C148.155 7.86048 147.572 8.00528 147.071 8.29718C146.57 8.58907 146.171 9.00048 145.872 9.53371C145.574 10.0669 145.424 10.7151 145.424 11.4735C145.424 12.232 145.574 12.8595 145.872 13.4019C146.171 13.9443 146.57 14.3603 147.071 14.6522C147.572 14.9441 148.137 15.0889 148.769 15.0889ZM152.186 17.9987V15.3302L152.26 11.4483L152.016 7.59157V8.84456e-08H155.797V17.9987H152.186Z" fill="url(#paint9_linear_0_4)"/>
<path id="Vector_11" d="M166.415 17.9987V1.01819H179.239V4.17157H170.318V14.8453H179.554V17.9987H166.415ZM170.026 10.915V7.85818H178.196V10.915H170.026Z" fill="url(#paint10_linear_0_4)"/>
<path id="Vector_12" d="M187.868 17.3689C186.656 17.3689 185.562 17.1069 184.584 16.5806C183.605 16.0542 182.822 15.3187 182.232 14.3741C181.641 13.4272 181.347 12.324 181.347 11.0621C181.347 9.80032 181.641 8.67181 182.232 7.72718C182.822 6.78024 183.605 6.04936 184.584 5.53222C185.562 5.01508 186.656 4.75536 187.868 4.75536C188.966 4.75536 189.938 4.97831 190.778 5.4219C191.619 5.86778 192.274 6.555 192.742 7.48355C193.211 8.4144 193.445 9.60726 193.445 11.0621C193.445 12.517 193.211 13.6869 192.742 14.6154C192.274 15.5463 191.619 16.2358 190.778 16.6886C189.938 17.1414 188.969 17.3689 187.868 17.3689ZM188.449 22.8988C187.221 22.8988 186.038 22.7494 184.898 22.4506C183.759 22.1519 182.811 21.7014 182.05 21.1038L183.552 18.3871C184.101 18.8399 184.802 19.2007 185.65 19.4673C186.497 19.7339 187.335 19.8673 188.158 19.8673C189.499 19.8673 190.473 19.5685 191.079 18.9686C191.686 18.371 191.989 17.4815 191.989 16.3002V14.335L192.232 11.0598L192.184 7.76165V4.94843H195.772V15.8152C195.772 18.2423 195.143 20.0281 193.882 21.175C192.621 22.3242 190.811 22.8965 188.452 22.8965L188.449 22.8988ZM188.619 14.2638C189.283 14.2638 189.871 14.1305 190.39 13.8639C190.907 13.5973 191.311 13.2203 191.603 12.7354C191.895 12.2504 192.039 11.6919 192.039 11.0621C192.039 10.4324 191.895 9.85318 191.603 9.37512C191.311 8.89935 190.907 8.52702 190.39 8.2604C189.873 7.99379 189.283 7.86048 188.619 7.86048C187.956 7.86048 187.368 7.99379 186.851 8.2604C186.334 8.52702 185.925 8.89935 185.627 9.37512C185.328 9.85318 185.179 10.414 185.179 11.0621C185.179 11.7103 185.328 12.2504 185.627 12.7354C185.925 13.2203 186.334 13.5973 186.851 13.8639C187.368 14.1305 187.958 14.2638 188.619 14.2638Z" fill="url(#paint11_linear_0_4)"/>
<path id="Vector_13" d="M200.935 22.8988C200.258 22.8988 199.587 22.7931 198.923 22.584C198.259 22.3748 197.72 22.0829 197.299 21.7106L198.682 19.0169C198.974 19.2743 199.309 19.4765 199.688 19.6236C200.067 19.7684 200.444 19.842 200.816 19.842C201.349 19.842 201.774 19.7156 202.088 19.465C202.403 19.2145 202.69 18.7985 202.95 18.2147L203.629 16.6127L203.921 16.2013L208.6 4.94613H212.236L206.344 18.7962C205.924 19.8466 205.444 20.6717 204.902 21.2716C204.36 21.8692 203.763 22.2898 203.108 22.5334C202.453 22.777 201.73 22.8965 200.938 22.8965L200.935 22.8988ZM203.165 18.5089L197.348 4.94843H201.25L205.759 15.8635L203.165 18.5066V18.5089Z" fill="url(#paint12_linear_0_4)"/>
<path id="Vector_14" d="M213.782 22.7058V4.95073H217.395V7.61915L217.321 11.5011L217.565 15.3578V22.7081H213.784L213.782 22.7058ZM221.49 18.1917C220.39 18.1917 219.43 17.9481 218.605 17.4631C217.781 16.9782 217.137 16.2381 216.678 15.2429C216.216 14.2477 215.987 12.9905 215.987 11.4713C215.987 9.95202 216.205 8.67411 216.641 7.68811C217.078 6.7021 217.707 5.96661 218.532 5.48165C219.356 4.99669 220.342 4.75307 221.49 4.75307C222.719 4.75307 223.821 5.03117 224.8 5.58968C225.778 6.14819 226.552 6.92734 227.126 7.92944C227.701 8.93153 227.988 10.1129 227.988 11.4713C227.988 12.8296 227.701 14.034 227.126 15.036C226.552 16.0381 225.776 16.815 224.8 17.3643C223.821 17.9136 222.719 18.1894 221.49 18.1894V18.1917ZM220.835 15.0889C221.465 15.0889 222.027 14.9441 222.521 14.6522C223.015 14.3603 223.41 13.9443 223.709 13.4019C224.007 12.8595 224.157 12.2182 224.157 11.4735C224.157 10.7289 224.007 10.0669 223.709 9.53371C223.41 9.00048 223.013 8.58678 222.521 8.29718C222.027 8.00528 221.467 7.86048 220.835 7.86048C220.204 7.86048 219.639 8.00528 219.138 8.29718C218.637 8.58907 218.242 9.00048 217.95 9.53371C217.659 10.0669 217.514 10.7151 217.514 11.4735C217.514 12.232 217.659 12.8595 217.95 13.4019C218.242 13.9443 218.637 14.3603 219.138 14.6522C219.639 14.9441 220.204 15.0889 220.835 15.0889Z" fill="url(#paint13_linear_0_4)"/>
<path id="Vector_15" d="M228.957 7.85819V4.94843H238V7.85819H228.957ZM235.841 18.1917C234.307 18.1917 233.11 17.801 232.253 17.015C231.396 16.2312 230.969 15.0613 230.969 13.5099V2.06165H234.75V13.4617C234.75 14.011 234.895 14.4362 235.186 14.735C235.478 15.0337 235.873 15.1831 236.374 15.1831C236.971 15.1831 237.481 15.0223 237.901 14.6982L238.919 17.3666C238.53 17.6424 238.067 17.847 237.524 17.9849C236.982 18.1228 236.422 18.1917 235.839 18.1917H235.841Z" fill="url(#paint14_linear_0_4)"/>
</g>
<defs>
<linearGradient id="paint0_linear_0_4" x1="2.26498e-06" y1="9.50843" x2="14.1097" y2="9.50843" gradientUnits="userSpaceOnUse">
<stop stop-color="#D2B782"/>
<stop offset="0.23" stop-color="#FBEA90"/>
<stop offset="0.41" stop-color="#CEAA62"/>
<stop offset="0.59" stop-color="#FFD893"/>
<stop offset="0.77" stop-color="#F8F0AF"/>
<stop offset="1" stop-color="#F6F4B7"/>
</linearGradient>
<linearGradient id="paint1_linear_0_4" x1="16.5329" y1="11.377" x2="38.5691" y2="11.377" gradientUnits="userSpaceOnUse">
<stop stop-color="#D2B782"/>
<stop offset="0.23" stop-color="#FBEA90"/>
<stop offset="0.41" stop-color="#CEAA62"/>
<stop offset="0.59" stop-color="#FFD893"/>
<stop offset="0.77" stop-color="#F8F0AF"/>
<stop offset="1" stop-color="#F6F4B7"/>
</linearGradient>
<linearGradient id="paint2_linear_0_4" x1="41.1141" y1="11.4735" x2="53.5011" y2="11.4735" gradientUnits="userSpaceOnUse">
<stop stop-color="#D2B782"/>
<stop offset="0.23" stop-color="#FBEA90"/>
<stop offset="0.41" stop-color="#CEAA62"/>
<stop offset="0.59" stop-color="#FFD893"/>
<stop offset="0.77" stop-color="#F8F0AF"/>
<stop offset="1" stop-color="#F6F4B7"/>
</linearGradient>
<linearGradient id="paint3_linear_0_4" x1="56.9189" y1="11.377" x2="65.0153" y2="11.377" gradientUnits="userSpaceOnUse">
<stop stop-color="#D2B782"/>
<stop offset="0.23" stop-color="#FBEA90"/>
<stop offset="0.41" stop-color="#CEAA62"/>
<stop offset="0.59" stop-color="#FFD893"/>
<stop offset="0.77" stop-color="#F8F0AF"/>
<stop offset="1" stop-color="#F6F4B7"/>
</linearGradient>
<linearGradient id="paint4_linear_0_4" x1="66.1799" y1="10.1267" x2="76.1414" y2="10.1267" gradientUnits="userSpaceOnUse">
<stop stop-color="#D2B782"/>
<stop offset="0.23" stop-color="#FBEA90"/>
<stop offset="0.41" stop-color="#CEAA62"/>
<stop offset="0.59" stop-color="#FFD893"/>
<stop offset="0.77" stop-color="#F8F0AF"/>
<stop offset="1" stop-color="#F6F4B7"/>
</linearGradient>
<linearGradient id="paint5_linear_0_4" x1="84.0679" y1="9.50843" x2="98.1776" y2="9.50843" gradientUnits="userSpaceOnUse">
<stop stop-color="#D2B782"/>
<stop offset="0.23" stop-color="#FBEA90"/>
<stop offset="0.41" stop-color="#CEAA62"/>
<stop offset="0.59" stop-color="#FFD893"/>
<stop offset="0.77" stop-color="#F8F0AF"/>
<stop offset="1" stop-color="#F6F4B7"/>
</linearGradient>
<linearGradient id="paint6_linear_0_4" x1="99.0504" y1="10.1267" x2="109.012" y2="10.1267" gradientUnits="userSpaceOnUse">
<stop stop-color="#D2B782"/>
<stop offset="0.23" stop-color="#FBEA90"/>
<stop offset="0.41" stop-color="#CEAA62"/>
<stop offset="0.59" stop-color="#FFD893"/>
<stop offset="0.77" stop-color="#F8F0AF"/>
<stop offset="1" stop-color="#F6F4B7"/>
</linearGradient>
<linearGradient id="paint7_linear_0_4" x1="109.862" y1="11.4735" x2="122.249" y2="11.4735" gradientUnits="userSpaceOnUse">
<stop stop-color="#D2B782"/>
<stop offset="0.23" stop-color="#FBEA90"/>
<stop offset="0.41" stop-color="#CEAA62"/>
<stop offset="0.59" stop-color="#FFD893"/>
<stop offset="0.77" stop-color="#F8F0AF"/>
<stop offset="1" stop-color="#F6F4B7"/>
</linearGradient>
<linearGradient id="paint8_linear_0_4" x1="125.667" y1="11.377" x2="138.998" y2="11.377" gradientUnits="userSpaceOnUse">
<stop stop-color="#D2B782"/>
<stop offset="0.23" stop-color="#FBEA90"/>
<stop offset="0.41" stop-color="#CEAA62"/>
<stop offset="0.59" stop-color="#FFD893"/>
<stop offset="0.77" stop-color="#F8F0AF"/>
<stop offset="1" stop-color="#F6F4B7"/>
</linearGradient>
<linearGradient id="paint9_linear_0_4" x1="141.593" y1="9.09702" x2="155.797" y2="9.09702" gradientUnits="userSpaceOnUse">
<stop stop-color="#D2B782"/>
<stop offset="0.23" stop-color="#FBEA90"/>
<stop offset="0.41" stop-color="#CEAA62"/>
<stop offset="0.59" stop-color="#FFD893"/>
<stop offset="0.77" stop-color="#F8F0AF"/>
<stop offset="1" stop-color="#F6F4B7"/>
</linearGradient>
<linearGradient id="paint10_linear_0_4" x1="166.415" y1="9.50843" x2="179.554" y2="9.50843" gradientUnits="userSpaceOnUse">
<stop stop-color="#D2B782"/>
<stop offset="0.23" stop-color="#FBEA90"/>
<stop offset="0.41" stop-color="#CEAA62"/>
<stop offset="0.59" stop-color="#FFD893"/>
<stop offset="0.77" stop-color="#F8F0AF"/>
<stop offset="1" stop-color="#F6F4B7"/>
</linearGradient>
<linearGradient id="paint11_linear_0_4" x1="181.347" y1="13.8271" x2="195.772" y2="13.8271" gradientUnits="userSpaceOnUse">
<stop stop-color="#D2B782"/>
<stop offset="0.23" stop-color="#FBEA90"/>
<stop offset="0.41" stop-color="#CEAA62"/>
<stop offset="0.59" stop-color="#FFD893"/>
<stop offset="0.77" stop-color="#F8F0AF"/>
<stop offset="1" stop-color="#F6F4B7"/>
</linearGradient>
<linearGradient id="paint12_linear_0_4" x1="197.299" y1="13.9236" x2="212.231" y2="13.9236" gradientUnits="userSpaceOnUse">
<stop stop-color="#D2B782"/>
<stop offset="0.23" stop-color="#FBEA90"/>
<stop offset="0.41" stop-color="#CEAA62"/>
<stop offset="0.59" stop-color="#FFD893"/>
<stop offset="0.77" stop-color="#F8F0AF"/>
<stop offset="1" stop-color="#F6F4B7"/>
</linearGradient>
<linearGradient id="paint13_linear_0_4" x1="213.782" y1="13.7306" x2="227.988" y2="13.7306" gradientUnits="userSpaceOnUse">
<stop stop-color="#D2B782"/>
<stop offset="0.23" stop-color="#FBEA90"/>
<stop offset="0.41" stop-color="#CEAA62"/>
<stop offset="0.59" stop-color="#FFD893"/>
<stop offset="0.77" stop-color="#F8F0AF"/>
<stop offset="1" stop-color="#F6F4B7"/>
</linearGradient>
<linearGradient id="paint14_linear_0_4" x1="228.957" y1="10.1267" x2="238.921" y2="10.1267" gradientUnits="userSpaceOnUse">
<stop stop-color="#D2B782"/>
<stop offset="0.23" stop-color="#FBEA90"/>
<stop offset="0.41" stop-color="#CEAA62"/>
<stop offset="0.59" stop-color="#FFD893"/>
<stop offset="0.77" stop-color="#F8F0AF"/>
<stop offset="1" stop-color="#F6F4B7"/>
</linearGradient>
</defs>
</svg>
