<svg width="294" height="57" viewBox="0 0 294 57" fill="none" xmlns="http://www.w3.org/2000/svg">
<g clip-path="url(#clip0_17_152)">
<path d="M43.9484 29.7204L46.39 27.2773L48.8293 24.8364L39.0653 15.0659L36.6214 12.6204L34.1821 10.1796L26.8574 2.85L24.4135 0.404518L21.9742 2.84541L19.5303 5.29089L12.2056 12.6204L9.76631 15.0613L7.32703 17.5068L4.88316 19.9477L0 24.8364L2.44388 27.2819L4.88086 29.7204L2.43928 32.1636L0 34.6045L9.76402 44.375L12.2079 46.8204L14.6472 49.2613L21.9719 56.5909L21.9765 56.5955H26.8574L29.3012 54.15L36.626 46.8204L39.0653 44.3796L41.5045 41.9341L43.9484 39.4932L48.8316 34.6068L46.3877 32.1613L43.9507 29.7227L43.9484 29.7204ZM41.5022 37.0477L39.063 39.4932L36.6191 41.9341L34.1798 44.375L31.7359 46.8204L29.2966 49.2613L26.8574 51.7022L24.4135 54.1477L17.0888 46.8181L14.6495 44.3773L12.2056 41.9318L4.88086 34.6022L7.32244 32.159L7.32933 32.1659L9.76861 34.6068L12.2079 37.0477L14.6518 39.4932L17.091 41.9341L19.5349 44.375L21.9742 46.8204L24.4135 49.2613L29.2966 44.375L31.7405 41.9341L29.3012 39.4932L26.8574 37.0477L21.9765 32.1636L19.5326 29.7181L17.0888 32.159L19.5326 34.6045L21.9719 37.0454L24.4158 39.4909L26.8551 41.9318L24.4158 44.3727L4.88775 24.8364L7.32703 22.3955L9.76631 19.95L12.2102 17.5091L14.6495 15.0682L17.0933 12.6227L19.5326 10.1819L21.9719 7.74097L24.4158 5.29549L31.7405 12.625L34.1798 15.0659L36.6237 17.5114L43.9484 24.841L41.5068 27.2842L41.4999 27.2773L39.0607 24.8364L36.6214 22.3955L34.1775 19.95L31.7382 17.5091L29.2943 15.0682L26.8551 12.6227L24.4158 10.1819L19.5326 15.0682L17.0888 17.5091L19.528 19.95L21.9719 22.3955L26.8528 27.2796L29.2966 29.725L31.7405 27.2842L29.2966 24.8387L26.8574 22.3978L24.4135 19.9523L21.9742 17.5114L24.4135 15.0705L43.9438 34.616L41.5045 37.0569L41.5022 37.0477Z" fill="url(#paint0_linear_17_152)"/>
<path d="M61.8433 28.3414C60.4859 28.3414 59.1835 28.1598 57.9409 27.7967C56.696 27.4335 55.6946 26.9601 54.9343 26.3786L56.2665 23.4183C56.9946 23.9354 57.8537 24.3606 58.8482 24.6916C59.8427 25.0225 60.8488 25.188 61.8663 25.188C62.6426 25.188 63.2674 25.1122 63.7451 24.9582C64.2206 24.8042 64.5743 24.5904 64.7994 24.3146C65.0268 24.0388 65.1393 23.724 65.1393 23.3677C65.1393 22.9149 64.9602 22.5541 64.6065 22.2875C64.2505 22.0208 63.7819 21.8025 63.2008 21.6324C62.6197 21.4623 61.9765 21.3015 61.2737 21.1475C60.5709 20.9935 59.868 20.805 59.1652 20.5775C58.4623 20.3522 57.8192 20.0603 57.2381 19.7041C56.657 19.3478 56.1838 18.879 55.8209 18.2975C55.458 17.716 55.2766 16.9713 55.2766 16.0657C55.2766 15.0958 55.5384 14.2109 56.0644 13.4088C56.5904 12.609 57.3805 11.97 58.4394 11.4919C59.4982 11.0162 60.8281 10.7771 62.4267 10.7771C63.4925 10.7771 64.5445 10.9035 65.578 11.1541C66.6116 11.4046 67.5258 11.7815 68.3182 12.2826L67.1055 15.2659C66.313 14.8131 65.5206 14.4775 64.7305 14.2592C63.9381 14.0408 63.1617 13.9328 62.4038 13.9328C61.6458 13.9328 61.021 14.0225 60.5364 14.1994C60.0518 14.3787 59.7049 14.6085 59.4936 14.8913C59.2846 15.174 59.179 15.5026 59.179 15.8727C59.179 16.3094 59.3558 16.661 59.7118 16.9276C60.0678 17.1942 60.5364 17.4103 61.1175 17.5712C61.6986 17.7321 62.3418 17.8952 63.0446 18.0561C63.7474 18.217 64.4503 18.4032 65.1531 18.6146C65.856 18.8238 66.4991 19.1088 67.0802 19.4627C67.6613 19.819 68.1345 20.2879 68.4974 20.8694C68.8603 21.4508 69.0417 22.1863 69.0417 23.0758C69.0417 24.0296 68.7753 24.903 68.2424 25.696C67.7095 26.4889 66.9125 27.1279 65.8537 27.6128C64.7948 28.0978 63.458 28.3414 61.841 28.3414H61.8433Z" fill="url(#paint1_linear_17_152)"/>
<path d="M71.4673 28.0495V14.9993H75.0803V18.5641L74.4004 17.5206C74.8529 16.6311 75.496 15.9554 76.3275 15.4957C77.1589 15.036 78.1098 14.8039 79.1756 14.8039C80.3723 14.8039 81.4174 15.1073 82.3154 15.7141C83.2135 16.3208 83.8061 17.2471 84.0978 18.4928L82.7656 18.1297C83.202 17.1115 83.9003 16.3025 84.8627 15.7049C85.8228 15.1073 86.9276 14.8085 88.1725 14.8085C89.2061 14.8085 90.1248 15.0154 90.9241 15.4268C91.7234 15.8382 92.3551 16.4702 92.8144 17.3183C93.2738 18.1664 93.5058 19.2559 93.5058 20.5798V28.0518H89.7252V21.1635C89.7252 20.1132 89.5069 19.3363 89.0705 18.8353C88.6341 18.3342 88.0209 18.0837 87.2284 18.0837C86.6795 18.0837 86.1857 18.2078 85.7493 18.4606C85.3128 18.7112 84.9729 19.0881 84.7317 19.5892C84.4906 20.0902 84.3688 20.7291 84.3688 21.506V28.0564H80.5882V21.1681C80.5882 20.1178 80.3746 19.3409 79.9451 18.8399C79.5178 18.3388 78.9069 18.0883 78.1144 18.0883C77.5655 18.0883 77.0717 18.2124 76.6353 18.4652C76.1988 18.7158 75.8589 19.0927 75.6177 19.5937C75.3743 20.0948 75.2548 20.7337 75.2548 21.5106V28.061H71.4742L71.4673 28.0495Z" fill="url(#paint2_linear_17_152)"/>
<path d="M100.92 28.2426C99.9025 28.2426 99.0297 28.0679 98.3016 27.7208C97.5735 27.3738 97.0176 26.9003 96.6294 26.3027C96.2413 25.7052 96.0483 25.034 96.0483 24.2894C96.0483 23.5447 96.239 22.8345 96.618 22.2507C96.9969 21.6692 97.5987 21.2118 98.4233 20.8808C99.2479 20.5499 100.323 20.3844 101.648 20.3844H105.114V22.5931H102.059C101.17 22.5931 100.559 22.7379 100.229 23.0298C99.8979 23.3217 99.7325 23.6849 99.7325 24.1216C99.7325 24.6065 99.9232 24.9904 100.302 25.2731C100.681 25.5558 101.203 25.6983 101.866 25.6983C102.53 25.6983 103.063 25.5489 103.564 25.2501C104.064 24.9513 104.427 24.51 104.655 23.9285L105.236 25.6753C104.96 26.5165 104.459 27.1554 103.734 27.5921C103.006 28.0288 102.068 28.2472 100.922 28.2472L100.92 28.2426ZM104.896 28.0495V25.5029L104.652 24.9444V20.3844C104.652 19.5754 104.407 18.9456 103.913 18.4928C103.419 18.04 102.663 17.8125 101.646 17.8125C100.95 17.8125 100.268 17.9205 99.597 18.1389C98.9263 18.3572 98.3567 18.6514 97.8881 19.0237L96.5307 16.3806C97.2427 15.8796 98.0971 15.4911 99.1009 15.2153C100.102 14.9395 101.12 14.8039 102.156 14.8039C104.143 14.8039 105.686 15.2728 106.786 16.2105C107.884 17.1483 108.435 18.6123 108.435 20.6004V28.0472H104.896V28.0495Z" fill="url(#paint3_linear_17_152)"/>
<path d="M111.853 28.0495V14.9993H115.466V18.6859L114.956 17.6194C115.344 16.6978 115.967 15.9991 116.824 15.521C117.68 15.0452 118.723 14.8062 119.95 14.8062V18.2998C119.789 18.2837 119.642 18.2722 119.513 18.263C119.385 18.2538 119.247 18.2515 119.102 18.2515C118.068 18.2515 117.232 18.5457 116.594 19.1364C115.955 19.7271 115.636 20.6441 115.636 21.8898V28.0518H111.855L111.853 28.0495Z" fill="url(#paint4_linear_17_152)"/>
<path d="M121.114 17.909V14.9993H130.157V17.909H121.114ZM127.998 28.2426C126.464 28.2426 125.267 27.8519 124.41 27.0658C123.553 26.2821 123.126 25.1122 123.126 23.5608V12.1125H126.907V23.5125C126.907 24.0618 127.052 24.487 127.343 24.7858C127.635 25.0846 128.03 25.234 128.531 25.234C129.128 25.234 129.638 25.0731 130.058 24.749L131.076 27.4175C130.688 27.6933 130.224 27.8978 129.681 28.0357C129.139 28.1736 128.579 28.2426 127.996 28.2426H127.998Z" fill="url(#paint5_linear_17_152)"/>
<path d="M145.911 28.3414C144.554 28.3414 143.251 28.1598 142.009 27.7967C140.764 27.4335 139.762 26.9601 139.002 26.3786L140.334 23.4183C141.062 23.9354 141.922 24.3606 142.916 24.6916C143.911 25.0225 144.917 25.188 145.934 25.188C146.711 25.188 147.335 25.1122 147.813 24.9582C148.288 24.8042 148.642 24.5904 148.867 24.3146C149.095 24.0388 149.207 23.724 149.207 23.3677C149.207 22.9149 149.028 22.5541 148.674 22.2875C148.318 22.0208 147.85 21.8025 147.269 21.6324C146.688 21.4623 146.044 21.3015 145.342 21.1475C144.639 20.9935 143.936 20.805 143.233 20.5775C142.53 20.3522 141.887 20.0603 141.306 19.7041C140.725 19.3478 140.252 18.879 139.889 18.2975C139.526 17.716 139.344 16.9713 139.344 16.0657C139.344 15.0958 139.606 14.2109 140.132 13.4088C140.658 12.609 141.448 11.97 142.507 11.4919C143.566 11.0162 144.896 10.7771 146.495 10.7771C147.56 10.7771 148.612 10.9035 149.646 11.1541C150.68 11.4046 151.594 11.7815 152.386 12.2826L151.173 15.2659C150.381 14.8131 149.589 14.4775 148.798 14.2592C148.006 14.0408 147.23 13.9328 146.472 13.9328C145.714 13.9328 145.089 14.0225 144.604 14.1994C144.12 14.3787 143.773 14.6085 143.562 14.8913C143.352 15.174 143.247 15.5026 143.247 15.8727C143.247 16.3094 143.424 16.661 143.78 16.9276C144.136 17.1942 144.604 17.4103 145.185 17.5712C145.766 17.7321 146.41 17.8952 147.112 18.0561C147.815 18.217 148.518 18.4032 149.221 18.6146C149.924 18.8238 150.567 19.1088 151.148 19.4627C151.729 19.819 152.202 20.2879 152.565 20.8694C152.928 21.4508 153.11 22.1863 153.11 23.0758C153.11 24.0296 152.843 24.903 152.31 25.696C151.777 26.4889 150.98 27.1279 149.922 27.6128C148.863 28.0978 147.526 28.3414 145.909 28.3414H145.911Z" fill="url(#paint6_linear_17_152)"/>
<path d="M153.985 17.909V14.9993H163.028V17.909H153.985ZM160.868 28.2426C159.334 28.2426 158.137 27.8519 157.281 27.0658C156.424 26.2821 155.997 25.1122 155.997 23.5608V12.1125H159.777V23.5125C159.777 24.0618 159.922 24.487 160.214 24.7858C160.506 25.0846 160.901 25.234 161.401 25.234C161.999 25.234 162.508 25.0731 162.929 24.749L163.946 27.4175C163.558 27.6933 163.094 27.8978 162.552 28.0357C162.01 28.1736 161.45 28.2426 160.866 28.2426H160.868Z" fill="url(#paint7_linear_17_152)"/>
<path d="M169.668 28.2426C168.65 28.2426 167.777 28.0679 167.049 27.7208C166.321 27.3738 165.765 26.9003 165.377 26.3027C164.989 25.7052 164.796 25.034 164.796 24.2894C164.796 23.5447 164.987 22.8345 165.366 22.2507C165.745 21.6692 166.347 21.2118 167.171 20.8808C167.996 20.5499 169.071 20.3844 170.396 20.3844H173.862V22.5931H170.807C169.918 22.5931 169.307 22.7379 168.976 23.0298C168.646 23.3217 168.48 23.6849 168.48 24.1216C168.48 24.6065 168.671 24.9904 169.05 25.2731C169.429 25.5558 169.95 25.6983 170.614 25.6983C171.278 25.6983 171.811 25.5489 172.312 25.2501C172.812 24.9513 173.175 24.51 173.403 23.9285L173.984 25.6753C173.708 26.5165 173.207 27.1554 172.481 27.5921C171.753 28.0288 170.816 28.2472 169.67 28.2472L169.668 28.2426ZM173.644 28.0495V25.5029L173.4 24.9444V20.3844C173.4 19.5754 173.154 18.9456 172.661 18.4928C172.167 18.04 171.411 17.8125 170.394 17.8125C169.698 17.8125 169.016 17.9205 168.345 18.1389C167.674 18.3572 167.105 18.6514 166.636 19.0237L165.278 16.3806C165.991 15.8796 166.845 15.4911 167.849 15.2153C168.85 14.9395 169.868 14.8039 170.904 14.8039C172.89 14.8039 174.434 15.2728 175.534 16.2105C176.632 17.1483 177.183 18.6123 177.183 20.6004V28.0472H173.644V28.0495Z" fill="url(#paint8_linear_17_152)"/>
<path d="M180.601 28.0495V14.9993H184.214V18.6123L183.534 17.5206C184.003 16.6472 184.673 15.9761 185.546 15.5072C186.419 15.0383 187.413 14.8039 188.527 14.8039C189.561 14.8039 190.487 15.0108 191.302 15.4222C192.117 15.8336 192.761 16.4656 193.229 17.3137C193.698 18.1619 193.932 19.2513 193.932 20.5752V28.0472H190.151V21.1589C190.151 20.1086 189.922 19.3317 189.46 18.8307C188.998 18.3296 188.348 18.0791 187.508 18.0791C186.91 18.0791 186.373 18.2032 185.895 18.456C185.418 18.7066 185.048 19.0904 184.781 19.6075C184.515 20.1247 184.382 20.7889 184.382 21.5956V28.0472H180.601V28.0495Z" fill="url(#paint9_linear_17_152)"/>
<path d="M203.048 28.2426C201.819 28.2426 200.712 27.9645 199.727 27.406C198.742 26.8475 197.961 26.0683 197.389 25.0639C196.815 24.0618 196.527 22.8804 196.527 21.5221C196.527 20.1638 196.815 18.9594 197.389 17.9573C197.963 16.9552 198.742 16.1783 199.727 15.629C200.712 15.0797 201.819 14.8039 203.048 14.8039C204.146 14.8039 205.109 15.0475 205.933 15.5325C206.758 16.0175 207.396 16.7529 207.849 17.739C208.301 18.725 208.529 19.9868 208.529 21.5221C208.529 23.0574 208.31 24.2986 207.874 25.2938C207.438 26.289 206.811 27.029 205.995 27.514C205.18 27.999 204.197 28.2426 203.051 28.2426H203.048ZM203.703 25.1398C204.316 25.1398 204.874 24.995 205.375 24.7031C205.876 24.4112 206.275 23.9952 206.574 23.4527C206.873 22.9103 207.022 22.2691 207.022 21.5244C207.022 20.7797 206.873 20.1178 206.574 19.5846C206.275 19.0513 205.876 18.6376 205.375 18.348C204.874 18.0561 204.316 17.9113 203.703 17.9113C203.09 17.9113 202.506 18.0561 202.006 18.348C201.505 18.6399 201.105 19.0513 200.807 19.5846C200.508 20.1178 200.359 20.7659 200.359 21.5244C200.359 22.2829 200.508 22.9103 200.807 23.4527C201.105 23.9952 201.505 24.4112 202.006 24.7031C202.506 24.995 203.071 25.1398 203.703 25.1398ZM207.121 28.0495V25.3811L207.194 21.4991L206.951 17.6424V10.0508H210.731V28.0495H207.121Z" fill="url(#paint10_linear_17_152)"/>
<path d="M221.35 28.0495V11.069H234.173V14.2224H225.252V24.8961H234.488V28.0495H221.35ZM224.961 20.9659V17.909H233.131V20.9659H224.961Z" fill="url(#paint11_linear_17_152)"/>
<path d="M242.803 27.4198C241.59 27.4198 240.497 27.1577 239.518 26.6314C238.54 26.1051 237.756 25.3696 237.166 24.425C236.576 23.478 236.282 22.3748 236.282 21.113C236.282 19.8512 236.576 18.7227 237.166 17.778C237.756 16.8311 238.54 16.1002 239.518 15.5831C240.497 15.0659 241.59 14.8062 242.803 14.8062C243.9 14.8062 244.872 15.0292 245.713 15.4727C246.553 15.9186 247.208 16.6059 247.677 17.5344C248.145 18.4652 248.379 19.6581 248.379 21.113C248.379 22.5679 248.145 23.7377 247.677 24.6663C247.208 25.5971 246.553 26.2867 245.713 26.7394C244.872 27.1922 243.903 27.4198 242.803 27.4198ZM243.384 32.9497C242.155 32.9497 240.972 32.8003 239.833 32.5015C238.693 32.2027 237.745 31.7522 236.985 31.1546L238.487 28.4379C239.036 28.8907 239.736 29.2516 240.584 29.5182C241.431 29.7848 242.27 29.9181 243.092 29.9181C244.433 29.9181 245.407 29.6193 246.014 29.0194C246.62 28.4219 246.923 27.5324 246.923 26.351V24.3859L247.167 21.1107L247.118 17.8125V14.9993H250.706V25.8661C250.706 28.2931 250.077 30.079 248.816 31.2259C247.555 32.3751 245.745 32.9474 243.386 32.9474L243.384 32.9497ZM243.554 24.3146C244.217 24.3146 244.805 24.1813 245.325 23.9147C245.841 23.6481 246.246 23.2712 246.537 22.7862C246.829 22.3013 246.974 21.7427 246.974 21.113C246.974 20.4832 246.829 19.904 246.537 19.426C246.246 18.9502 245.841 18.5779 245.325 18.3113C244.808 18.0446 244.217 17.9113 243.554 17.9113C242.89 17.9113 242.302 18.0446 241.785 18.3113C241.268 18.5779 240.859 18.9502 240.561 19.426C240.262 19.904 240.113 20.4648 240.113 21.113C240.113 21.7611 240.262 22.3013 240.561 22.7862C240.859 23.2712 241.268 23.6481 241.785 23.9147C242.302 24.1813 242.892 24.3146 243.554 24.3146Z" fill="url(#paint12_linear_17_152)"/>
<path d="M255.87 32.9497C255.192 32.9497 254.521 32.844 253.858 32.6348C253.194 32.4256 252.654 32.1338 252.234 31.7614L253.616 29.0677C253.908 29.3251 254.243 29.5274 254.622 29.6745C255.001 29.8193 255.378 29.8928 255.75 29.8928C256.283 29.8928 256.708 29.7664 257.023 29.5159C257.337 29.2654 257.624 28.8494 257.884 28.2656L258.564 26.6636L258.856 26.2522L263.534 14.997H267.17L261.279 28.8471C260.858 29.8974 260.378 30.7225 259.836 31.3224C259.294 31.92 258.697 32.3406 258.042 32.5842C257.388 32.8279 256.664 32.9474 255.872 32.9474L255.87 32.9497ZM258.1 28.5598L252.282 14.9993H256.184L260.693 25.9143L258.1 28.5575V28.5598Z" fill="url(#paint13_linear_17_152)"/>
<path d="M268.716 32.7566V15.0016H272.329V17.67L272.255 21.552L272.499 25.4087V32.7589H268.718L268.716 32.7566ZM276.424 28.2426C275.324 28.2426 274.364 27.999 273.539 27.514C272.715 27.029 272.072 26.2889 271.612 25.2937C271.151 24.2985 270.921 23.0413 270.921 21.5221C270.921 20.0029 271.139 18.725 271.576 17.7389C272.012 16.7529 272.641 16.0175 273.466 15.5325C274.29 15.0475 275.276 14.8039 276.424 14.8039C277.653 14.8039 278.756 15.082 279.734 15.6405C280.713 16.199 281.487 16.9782 282.061 17.9803C282.635 18.9824 282.922 20.1637 282.922 21.5221C282.922 22.8804 282.635 24.0848 282.061 25.0869C281.487 26.089 280.71 26.8658 279.734 27.4152C278.756 27.9645 277.653 28.2403 276.424 28.2403V28.2426ZM275.77 25.1398C276.399 25.1398 276.962 24.995 277.456 24.7031C277.949 24.4112 278.344 23.9952 278.643 23.4527C278.942 22.9103 279.091 22.2691 279.091 21.5244C279.091 20.7797 278.942 20.1178 278.643 19.5846C278.344 19.0513 277.947 18.6376 277.456 18.348C276.962 18.0561 276.401 17.9113 275.77 17.9113C275.138 17.9113 274.573 18.0561 274.072 18.348C273.572 18.6399 273.176 19.0513 272.885 19.5846C272.593 20.1178 272.448 20.7659 272.448 21.5244C272.448 22.2829 272.593 22.9103 272.885 23.4527C273.176 23.9952 273.572 24.4112 274.072 24.7031C274.573 24.995 275.138 25.1398 275.77 25.1398Z" fill="url(#paint14_linear_17_152)"/>
<path d="M283.891 17.909V14.9993H292.934V17.909H283.891ZM290.775 28.2426C289.241 28.2426 288.044 27.8519 287.187 27.0658C286.331 26.2821 285.903 25.1122 285.903 23.5608V12.1125H289.684V23.5125C289.684 24.0618 289.829 24.487 290.12 24.7858C290.412 25.0846 290.807 25.234 291.308 25.234C291.905 25.234 292.415 25.0731 292.835 24.749L293.853 27.4175C293.465 27.6933 293.001 27.8978 292.459 28.0357C291.917 28.1736 291.356 28.2426 290.773 28.2426H290.775Z" fill="url(#paint15_linear_17_152)"/>
<path d="M56.5605 50.7783V40.7918H57.6148V50.7783H56.5605Z" fill="url(#paint16_linear_17_152)"/>
<path d="M60.8672 50.7783V40.7918H61.7377L68.6237 49.4659H68.1667V40.7918H69.2071V50.7783H68.3366L61.4644 42.1042H61.9215V50.7783H60.8672Z" fill="url(#paint17_linear_17_152)"/>
<path d="M74.3958 50.7783V41.7042H70.8884V40.7918H78.9574V41.7042H75.45V50.7783H74.3958Z" fill="url(#paint18_linear_17_152)"/>
<path d="M80.641 50.7783V40.7918H87.4834V41.7042H81.6953V49.8635H87.697V50.776H80.641V50.7783ZM81.5827 46.1562V45.2575H86.8586V46.1562H81.5827Z" fill="url(#paint19_linear_17_152)"/>
<path d="M94.5279 50.8633C93.7676 50.8633 93.0671 50.7369 92.4239 50.4841C91.7831 50.2313 91.2273 49.8773 90.7564 49.4199C90.2856 48.9625 89.9204 48.427 89.6585 47.8088C89.3967 47.1905 89.2657 46.5148 89.2657 45.7839C89.2657 45.053 89.3967 44.3773 89.6585 43.759C89.9204 43.1407 90.2879 42.6029 90.7633 42.1478C91.2388 41.6905 91.7969 41.3365 92.4377 41.086C93.0786 40.8332 93.7791 40.7067 94.5417 40.7067C95.3042 40.7067 95.9979 40.8263 96.6295 41.063C97.2612 41.2997 97.8009 41.6629 98.2488 42.1478L97.5919 42.819C97.1739 42.4007 96.7122 42.1019 96.2092 41.9203C95.7062 41.7387 95.1641 41.6491 94.583 41.6491C93.9652 41.6491 93.3978 41.7502 92.8787 41.9548C92.3619 42.1593 91.9094 42.4489 91.5236 42.8259C91.1377 43.2028 90.8391 43.6395 90.6255 44.1382C90.4119 44.637 90.3039 45.1863 90.3039 45.7862C90.3039 46.3861 90.4096 46.9216 90.6255 47.4272C90.8391 47.9306 91.1377 48.3719 91.5236 48.7465C91.9094 49.1211 92.3596 49.413 92.8787 49.6176C93.3955 49.8221 93.9606 49.9233 94.5692 49.9233C95.1389 49.9233 95.6786 49.8382 96.1885 49.6659C96.6961 49.4935 97.1647 49.2039 97.5919 48.7948L98.1914 49.5946C97.7159 50.0129 97.1601 50.3301 96.5239 50.5438C95.8876 50.7576 95.2215 50.8656 94.5279 50.8656V50.8633ZM98.1914 49.5946L97.1785 49.4659V45.7862H98.1914V49.5946Z" fill="url(#paint20_linear_17_152)"/>
<path d="M101.17 50.7783V40.7918H104.905C106.168 40.7918 107.165 41.0929 107.891 41.6973C108.619 42.3018 108.982 43.1407 108.982 44.2164C108.982 44.9197 108.819 45.5265 108.491 46.0344C108.162 46.5423 107.694 46.9331 107.087 47.2043C106.478 47.4755 105.753 47.6111 104.905 47.6111H101.754L102.225 47.1261V50.7783H101.17ZM102.227 47.2112L101.756 46.7124H104.878C105.874 46.7124 106.632 46.4941 107.151 46.0551C107.668 45.6184 107.928 45.0047 107.928 44.2141C107.928 43.4234 107.668 42.796 107.151 42.3593C106.632 41.9226 105.874 41.7019 104.878 41.7019H101.756L102.227 41.2032V47.2089V47.2112ZM107.985 50.7783L105.42 47.1537H106.561L109.143 50.7783H107.988H107.985Z" fill="url(#paint21_linear_17_152)"/>
<path d="M109.883 50.7783L114.444 40.7918H115.485L120.046 50.7783H118.935L114.743 41.4054H115.17L110.978 50.7783H109.88H109.883ZM111.679 48.1098L111.993 47.2548H117.795L118.11 48.1098H111.681H111.679Z" fill="url(#paint22_linear_17_152)"/>
<path d="M123.14 50.7783V41.7042H119.633V40.7918H127.702V41.7042H124.194V50.7783H123.14Z" fill="url(#paint23_linear_17_152)"/>
<path d="M129.385 50.7783V40.7918H136.228V41.7042H130.44V49.8635H136.441V50.776H129.385V50.7783ZM130.327 46.1562V45.2575H135.603V46.1562H130.327Z" fill="url(#paint24_linear_17_152)"/>
<path d="M138.924 50.7783V40.7918H142.987C144.051 40.7918 144.986 41.0032 145.79 41.4261C146.593 41.849 147.218 42.4374 147.664 43.189C148.109 43.9406 148.334 44.8048 148.334 45.7862C148.334 46.7676 148.112 47.6318 147.664 48.3834C147.216 49.1349 146.591 49.721 145.79 50.1439C144.986 50.5668 144.053 50.7783 142.987 50.7783H138.924ZM139.978 49.8658H142.93C143.814 49.8658 144.581 49.6934 145.231 49.3441C145.881 48.997 146.389 48.5167 146.75 47.903C147.11 47.2893 147.292 46.5837 147.292 45.7839C147.292 44.984 147.11 44.2669 146.75 43.6579C146.389 43.0488 145.881 42.5707 145.231 42.2237C144.581 41.8766 143.812 41.7019 142.93 41.7019H139.978V49.8612V49.8658Z" fill="url(#paint25_linear_17_152)"/>
<path d="M154.435 50.7783V40.7918H158.498C159.562 40.7918 160.496 41.0032 161.3 41.4261C162.104 41.849 162.729 42.4374 163.175 43.189C163.62 43.9406 163.845 44.8048 163.845 45.7862C163.845 46.7676 163.622 47.6318 163.175 48.3834C162.727 49.1349 162.102 49.721 161.3 50.1439C160.496 50.5668 159.564 50.7783 158.498 50.7783H154.435ZM155.489 49.8658H158.441C159.325 49.8658 160.092 49.6934 160.742 49.3441C161.392 48.997 161.9 48.5167 162.26 47.903C162.621 47.2893 162.802 46.5837 162.802 45.7839C162.802 44.984 162.621 44.2669 162.26 43.6579C161.9 43.0488 161.392 42.5707 160.742 42.2237C160.092 41.8766 159.323 41.7019 158.441 41.7019H155.489V49.8612V49.8658Z" fill="url(#paint26_linear_17_152)"/>
<path d="M166.211 50.7783V40.7918H167.265V50.7783H166.211Z" fill="url(#paint27_linear_17_152)"/>
<path d="M173.269 50.8633C172.528 50.8633 171.818 50.7415 171.138 50.5002C170.458 50.2565 169.934 49.9462 169.562 49.5647L169.976 48.7511C170.327 49.0935 170.8 49.3808 171.395 49.6153C171.99 49.8474 172.615 49.9646 173.269 49.9646C173.924 49.9646 174.409 49.8865 174.801 49.7302C175.196 49.5739 175.486 49.3625 175.672 49.0958C175.858 48.8292 175.95 48.535 175.95 48.211C175.95 47.8202 175.837 47.5077 175.615 47.2686C175.392 47.0319 175.098 46.8434 174.737 46.7055C174.377 46.5676 173.977 46.4458 173.54 46.3424C173.104 46.2367 172.665 46.1263 172.229 46.0068C171.793 45.8873 171.391 45.7287 171.025 45.5287C170.66 45.3288 170.364 45.0645 170.141 44.7358C169.918 44.4071 169.806 43.9773 169.806 43.4441C169.806 42.95 169.937 42.4949 170.198 42.0812C170.46 41.6675 170.862 41.3342 171.404 41.0837C171.946 40.8308 172.64 40.7044 173.485 40.7044C174.046 40.7044 174.602 40.7826 175.153 40.9389C175.704 41.0952 176.18 41.3112 176.579 41.5893L176.223 42.4305C175.796 42.1455 175.341 41.9364 174.861 41.8031C174.381 41.6698 173.917 41.6031 173.472 41.6031C172.872 41.6031 172.378 41.6836 171.99 41.8467C171.6 42.0076 171.312 42.226 171.126 42.4949C170.94 42.7661 170.849 43.0718 170.849 43.4142C170.849 43.805 170.961 44.1175 171.184 44.3566C171.407 44.5933 171.701 44.7795 172.068 44.9128C172.433 45.0461 172.835 45.1656 173.272 45.269C173.708 45.3748 174.145 45.4874 174.576 45.6115C175.008 45.7356 175.408 45.8942 175.773 46.0896C176.138 46.2849 176.435 46.5446 176.657 46.8664C176.88 47.1905 176.993 47.6134 176.993 48.1351C176.993 48.6201 176.859 49.0706 176.593 49.4843C176.327 49.898 175.92 50.2312 175.373 50.4841C174.827 50.7369 174.126 50.8633 173.269 50.8633Z" fill="url(#paint28_linear_17_152)"/>
<path d="M179.285 50.7783V40.7918H183.02C183.865 40.7918 184.593 40.9274 185.202 41.1986C185.81 41.4698 186.279 41.8605 186.605 42.3685C186.934 42.8764 187.097 43.4924 187.097 44.2164C187.097 44.9404 186.934 45.5265 186.605 46.0344C186.277 46.5423 185.808 46.9354 185.202 47.2112C184.593 47.487 183.867 47.6249 183.02 47.6249H179.868L180.339 47.1261V50.7783H179.285ZM180.339 47.2112L179.868 46.6986H182.99C183.987 46.6986 184.745 46.4826 185.264 46.0505C185.78 45.6184 186.04 45.007 186.04 44.2164C186.04 43.4257 185.78 42.7983 185.264 42.3616C184.745 41.9249 183.987 41.7042 182.99 41.7042H179.868L180.339 41.2055V47.2112Z" fill="url(#paint29_linear_17_152)"/>
<path d="M189.38 50.7783V40.7918H190.434V49.8658H196.022V50.7783H189.377H189.38Z" fill="url(#paint30_linear_17_152)"/>
<path d="M196.181 50.7783L200.742 40.7918H201.783L206.344 50.7783H205.233L201.041 41.4054H201.468L197.276 50.7783H196.178H196.181ZM197.977 48.1098L198.291 47.2548H204.093L204.408 48.1098H197.979H197.977Z" fill="url(#paint31_linear_17_152)"/>
<path d="M209.709 50.7783V47.0687L209.953 47.726L205.717 40.7918H206.843L210.564 46.8825H209.964L213.685 40.7918H214.739L210.504 47.726L210.747 47.0687V50.7783H209.707H209.709Z" fill="url(#paint32_linear_17_152)"/>
<path d="M222.868 50.8633C222.126 50.8633 221.416 50.7415 220.737 50.5002C220.057 50.2565 219.533 49.9462 219.161 49.5647L219.574 48.7511C219.926 49.0935 220.399 49.3808 220.994 49.6153C221.589 49.8474 222.213 49.9646 222.868 49.9646C223.523 49.9646 224.007 49.8865 224.4 49.7302C224.795 49.5739 225.085 49.3625 225.271 49.0958C225.457 48.8292 225.548 48.535 225.548 48.211C225.548 47.8202 225.436 47.5077 225.213 47.2686C224.99 47.0319 224.696 46.8434 224.336 46.7055C223.975 46.5676 223.575 46.4458 223.139 46.3424C222.703 46.2367 222.264 46.1263 221.828 46.0068C221.391 45.8873 220.989 45.7287 220.624 45.5287C220.259 45.3288 219.963 45.0645 219.74 44.7358C219.517 44.4071 219.404 43.9773 219.404 43.4441C219.404 42.95 219.535 42.4949 219.797 42.0812C220.059 41.6675 220.461 41.3342 221.003 41.0837C221.545 40.8308 222.239 40.7044 223.084 40.7044C223.644 40.7044 224.2 40.7826 224.751 40.9389C225.303 41.0952 225.778 41.3112 226.178 41.5893L225.822 42.4305C225.395 42.1455 224.94 41.9364 224.46 41.8031C223.98 41.6698 223.516 41.6031 223.07 41.6031C222.471 41.6031 221.977 41.6836 221.589 41.8467C221.198 42.0076 220.911 42.226 220.725 42.4949C220.539 42.7661 220.447 43.0718 220.447 43.4142C220.447 43.805 220.56 44.1175 220.782 44.3566C221.005 44.5933 221.299 44.7795 221.667 44.9128C222.032 45.0461 222.434 45.1656 222.87 45.269C223.307 45.3748 223.743 45.4874 224.175 45.6115C224.607 45.7356 225.006 45.8942 225.372 46.0896C225.737 46.2849 226.033 46.5446 226.256 46.8664C226.479 47.1905 226.591 47.6134 226.591 48.1351C226.591 48.6201 226.458 49.0706 226.192 49.4843C225.925 49.898 225.519 50.2312 224.972 50.4841C224.425 50.7369 223.725 50.8633 222.868 50.8633Z" fill="url(#paint33_linear_17_152)"/>
<path d="M233.248 50.8633C232.497 50.8633 231.801 50.7369 231.16 50.4841C230.519 50.2313 229.963 49.875 229.492 49.413C229.021 48.9511 228.656 48.4155 228.394 47.8019C228.133 47.1882 228.002 46.5148 228.002 45.7839C228.002 45.053 228.133 44.3796 228.394 43.7659C228.656 43.1522 229.021 42.6144 229.492 42.1547C229.963 41.6928 230.517 41.3365 231.153 41.086C231.789 40.8332 232.487 40.7067 233.248 40.7067C234.008 40.7067 234.692 40.8332 235.329 41.086C235.965 41.3388 236.518 41.6928 236.989 42.1478C237.46 42.6052 237.825 43.1407 238.087 43.759C238.349 44.3773 238.48 45.053 238.48 45.7839C238.48 46.5148 238.349 47.1928 238.087 47.8088C237.825 48.427 237.46 48.9648 236.989 49.4199C236.518 49.8773 235.965 50.2313 235.329 50.4841C234.692 50.7369 233.999 50.8633 233.248 50.8633ZM233.248 49.921C233.847 49.921 234.401 49.8198 234.908 49.6153C235.416 49.4107 235.859 49.1211 236.234 48.7442C236.608 48.3696 236.902 47.9306 237.111 47.4318C237.32 46.9331 237.426 46.3838 237.426 45.7839C237.426 45.184 237.32 44.6347 237.111 44.1359C236.902 43.6372 236.61 43.1982 236.234 42.8236C235.857 42.4489 235.416 42.157 234.908 41.9525C234.401 41.7479 233.847 41.6468 233.248 41.6468C232.648 41.6468 232.092 41.7479 231.58 41.9525C231.068 42.157 230.622 42.4466 230.248 42.8236C229.871 43.1982 229.577 43.6372 229.364 44.1359C229.15 44.6347 229.042 45.184 229.042 45.7839C229.042 46.3838 229.148 46.9193 229.364 47.4249C229.577 47.9283 229.871 48.3696 230.248 48.7442C230.622 49.1188 231.068 49.4107 231.58 49.6153C232.092 49.8198 232.648 49.921 233.248 49.921Z" fill="url(#paint34_linear_17_152)"/>
<path d="M244.868 50.8633C243.593 50.8633 242.591 50.4979 241.859 49.7647C241.126 49.0315 240.761 47.949 240.761 46.5125V40.7918H241.815V46.4688C241.815 47.6479 242.081 48.519 242.614 49.0798C243.147 49.6406 243.898 49.921 244.868 49.921C245.837 49.921 246.602 49.6406 247.135 49.0798C247.667 48.519 247.934 47.6479 247.934 46.4688V40.7918H248.961V46.5125C248.961 47.949 248.598 49.0338 247.87 49.7647C247.141 50.4979 246.142 50.8633 244.87 50.8633H244.868Z" fill="url(#paint35_linear_17_152)"/>
<path d="M252.14 50.7783V40.7918H253.194V49.8658H258.782V50.7783H252.137H252.14Z" fill="url(#paint36_linear_17_152)"/>
<path d="M261.377 50.7783V41.7042H257.87V40.7918H265.939V41.7042H262.432V50.7783H261.377Z" fill="url(#paint37_linear_17_152)"/>
<path d="M267.623 50.7783V40.7918H268.677V50.7783H267.623Z" fill="url(#paint38_linear_17_152)"/>
<path d="M276.289 50.8633C275.538 50.8633 274.842 50.7369 274.201 50.4841C273.56 50.2313 273.004 49.875 272.533 49.413C272.063 48.9511 271.697 48.4155 271.435 47.8019C271.174 47.1882 271.043 46.5148 271.043 45.7839C271.043 45.053 271.174 44.3796 271.435 43.7659C271.697 43.1522 272.063 42.6144 272.533 42.1547C273.004 41.6928 273.558 41.3365 274.194 41.086C274.83 40.8332 275.529 40.7067 276.289 40.7067C277.049 40.7067 277.733 40.8332 278.37 41.086C279.006 41.3388 279.56 41.6928 280.03 42.1478C280.501 42.6052 280.866 43.1407 281.128 43.759C281.39 44.3773 281.521 45.053 281.521 45.7839C281.521 46.5148 281.39 47.1928 281.128 47.8088C280.866 48.427 280.501 48.9648 280.03 49.4199C279.56 49.8773 279.006 50.2313 278.37 50.4841C277.733 50.7369 277.04 50.8633 276.289 50.8633ZM276.289 49.921C276.888 49.921 277.442 49.8198 277.949 49.6153C278.457 49.4107 278.9 49.1211 279.275 48.7442C279.649 48.3696 279.943 47.9306 280.152 47.4318C280.361 46.9331 280.467 46.3838 280.467 45.7839C280.467 45.184 280.361 44.6347 280.152 44.1359C279.943 43.6372 279.651 43.1982 279.275 42.8236C278.898 42.4489 278.457 42.157 277.949 41.9525C277.442 41.7479 276.888 41.6468 276.289 41.6468C275.689 41.6468 275.133 41.7479 274.621 41.9525C274.109 42.157 273.663 42.4466 273.289 42.8236C272.912 43.1982 272.618 43.6372 272.405 44.1359C272.191 44.6347 272.083 45.184 272.083 45.7839C272.083 46.3838 272.189 46.9193 272.405 47.4249C272.618 47.9283 272.912 48.3696 273.289 48.7442C273.663 49.1188 274.109 49.4107 274.621 49.6153C275.133 49.8198 275.689 49.921 276.289 49.921Z" fill="url(#paint39_linear_17_152)"/>
<path d="M283.889 50.7783V40.7918H284.76L291.646 49.4659H291.189V40.7918H292.229V50.7783H291.359L284.486 42.1042H284.943V50.7783H283.889Z" fill="url(#paint40_linear_17_152)"/>
</g>
<defs>
<linearGradient id="paint0_linear_17_152" x1="0" y1="28.5" x2="48.8316" y2="28.5" gradientUnits="userSpaceOnUse">
<stop stop-color="#D2B782"/>
<stop offset="0.23" stop-color="#FBEA90"/>
<stop offset="0.41" stop-color="#CEAA62"/>
<stop offset="0.59" stop-color="#FFD893"/>
<stop offset="0.77" stop-color="#F8F0AF"/>
<stop offset="1" stop-color="#F6F4B7"/>
</linearGradient>
<linearGradient id="paint1_linear_17_152" x1="54.9343" y1="19.5593" x2="69.044" y2="19.5593" gradientUnits="userSpaceOnUse">
<stop stop-color="#D2B782"/>
<stop offset="0.23" stop-color="#FBEA90"/>
<stop offset="0.41" stop-color="#CEAA62"/>
<stop offset="0.59" stop-color="#FFD893"/>
<stop offset="0.77" stop-color="#F8F0AF"/>
<stop offset="1" stop-color="#F6F4B7"/>
</linearGradient>
<linearGradient id="paint2_linear_17_152" x1="71.4673" y1="21.4279" x2="93.5035" y2="21.4279" gradientUnits="userSpaceOnUse">
<stop stop-color="#D2B782"/>
<stop offset="0.23" stop-color="#FBEA90"/>
<stop offset="0.41" stop-color="#CEAA62"/>
<stop offset="0.59" stop-color="#FFD893"/>
<stop offset="0.77" stop-color="#F8F0AF"/>
<stop offset="1" stop-color="#F6F4B7"/>
</linearGradient>
<linearGradient id="paint3_linear_17_152" x1="96.0483" y1="21.5244" x2="108.435" y2="21.5244" gradientUnits="userSpaceOnUse">
<stop stop-color="#D2B782"/>
<stop offset="0.23" stop-color="#FBEA90"/>
<stop offset="0.41" stop-color="#CEAA62"/>
<stop offset="0.59" stop-color="#FFD893"/>
<stop offset="0.77" stop-color="#F8F0AF"/>
<stop offset="1" stop-color="#F6F4B7"/>
</linearGradient>
<linearGradient id="paint4_linear_17_152" x1="111.853" y1="21.4279" x2="119.95" y2="21.4279" gradientUnits="userSpaceOnUse">
<stop stop-color="#D2B782"/>
<stop offset="0.23" stop-color="#FBEA90"/>
<stop offset="0.41" stop-color="#CEAA62"/>
<stop offset="0.59" stop-color="#FFD893"/>
<stop offset="0.77" stop-color="#F8F0AF"/>
<stop offset="1" stop-color="#F6F4B7"/>
</linearGradient>
<linearGradient id="paint5_linear_17_152" x1="121.114" y1="20.1775" x2="131.076" y2="20.1775" gradientUnits="userSpaceOnUse">
<stop stop-color="#D2B782"/>
<stop offset="0.23" stop-color="#FBEA90"/>
<stop offset="0.41" stop-color="#CEAA62"/>
<stop offset="0.59" stop-color="#FFD893"/>
<stop offset="0.77" stop-color="#F8F0AF"/>
<stop offset="1" stop-color="#F6F4B7"/>
</linearGradient>
<linearGradient id="paint6_linear_17_152" x1="139.002" y1="19.5593" x2="153.112" y2="19.5593" gradientUnits="userSpaceOnUse">
<stop stop-color="#D2B782"/>
<stop offset="0.23" stop-color="#FBEA90"/>
<stop offset="0.41" stop-color="#CEAA62"/>
<stop offset="0.59" stop-color="#FFD893"/>
<stop offset="0.77" stop-color="#F8F0AF"/>
<stop offset="1" stop-color="#F6F4B7"/>
</linearGradient>
<linearGradient id="paint7_linear_17_152" x1="153.985" y1="20.1775" x2="163.946" y2="20.1775" gradientUnits="userSpaceOnUse">
<stop stop-color="#D2B782"/>
<stop offset="0.23" stop-color="#FBEA90"/>
<stop offset="0.41" stop-color="#CEAA62"/>
<stop offset="0.59" stop-color="#FFD893"/>
<stop offset="0.77" stop-color="#F8F0AF"/>
<stop offset="1" stop-color="#F6F4B7"/>
</linearGradient>
<linearGradient id="paint8_linear_17_152" x1="164.796" y1="21.5244" x2="177.183" y2="21.5244" gradientUnits="userSpaceOnUse">
<stop stop-color="#D2B782"/>
<stop offset="0.23" stop-color="#FBEA90"/>
<stop offset="0.41" stop-color="#CEAA62"/>
<stop offset="0.59" stop-color="#FFD893"/>
<stop offset="0.77" stop-color="#F8F0AF"/>
<stop offset="1" stop-color="#F6F4B7"/>
</linearGradient>
<linearGradient id="paint9_linear_17_152" x1="180.601" y1="21.4279" x2="193.932" y2="21.4279" gradientUnits="userSpaceOnUse">
<stop stop-color="#D2B782"/>
<stop offset="0.23" stop-color="#FBEA90"/>
<stop offset="0.41" stop-color="#CEAA62"/>
<stop offset="0.59" stop-color="#FFD893"/>
<stop offset="0.77" stop-color="#F8F0AF"/>
<stop offset="1" stop-color="#F6F4B7"/>
</linearGradient>
<linearGradient id="paint10_linear_17_152" x1="196.527" y1="19.1479" x2="210.731" y2="19.1479" gradientUnits="userSpaceOnUse">
<stop stop-color="#D2B782"/>
<stop offset="0.23" stop-color="#FBEA90"/>
<stop offset="0.41" stop-color="#CEAA62"/>
<stop offset="0.59" stop-color="#FFD893"/>
<stop offset="0.77" stop-color="#F8F0AF"/>
<stop offset="1" stop-color="#F6F4B7"/>
</linearGradient>
<linearGradient id="paint11_linear_17_152" x1="221.35" y1="19.5593" x2="234.488" y2="19.5593" gradientUnits="userSpaceOnUse">
<stop stop-color="#D2B782"/>
<stop offset="0.23" stop-color="#FBEA90"/>
<stop offset="0.41" stop-color="#CEAA62"/>
<stop offset="0.59" stop-color="#FFD893"/>
<stop offset="0.77" stop-color="#F8F0AF"/>
<stop offset="1" stop-color="#F6F4B7"/>
</linearGradient>
<linearGradient id="paint12_linear_17_152" x1="236.282" y1="23.8779" x2="250.706" y2="23.8779" gradientUnits="userSpaceOnUse">
<stop stop-color="#D2B782"/>
<stop offset="0.23" stop-color="#FBEA90"/>
<stop offset="0.41" stop-color="#CEAA62"/>
<stop offset="0.59" stop-color="#FFD893"/>
<stop offset="0.77" stop-color="#F8F0AF"/>
<stop offset="1" stop-color="#F6F4B7"/>
</linearGradient>
<linearGradient id="paint13_linear_17_152" x1="252.234" y1="23.9745" x2="267.166" y2="23.9745" gradientUnits="userSpaceOnUse">
<stop stop-color="#D2B782"/>
<stop offset="0.23" stop-color="#FBEA90"/>
<stop offset="0.41" stop-color="#CEAA62"/>
<stop offset="0.59" stop-color="#FFD893"/>
<stop offset="0.77" stop-color="#F8F0AF"/>
<stop offset="1" stop-color="#F6F4B7"/>
</linearGradient>
<linearGradient id="paint14_linear_17_152" x1="268.716" y1="23.7814" x2="282.922" y2="23.7814" gradientUnits="userSpaceOnUse">
<stop stop-color="#D2B782"/>
<stop offset="0.23" stop-color="#FBEA90"/>
<stop offset="0.41" stop-color="#CEAA62"/>
<stop offset="0.59" stop-color="#FFD893"/>
<stop offset="0.77" stop-color="#F8F0AF"/>
<stop offset="1" stop-color="#F6F4B7"/>
</linearGradient>
<linearGradient id="paint15_linear_17_152" x1="283.891" y1="20.1775" x2="293.855" y2="20.1775" gradientUnits="userSpaceOnUse">
<stop stop-color="#D2B782"/>
<stop offset="0.23" stop-color="#FBEA90"/>
<stop offset="0.41" stop-color="#CEAA62"/>
<stop offset="0.59" stop-color="#FFD893"/>
<stop offset="0.77" stop-color="#F8F0AF"/>
<stop offset="1" stop-color="#F6F4B7"/>
</linearGradient>
<linearGradient id="paint16_linear_17_152" x1="56.5605" y1="45.7862" x2="57.6148" y2="45.7862" gradientUnits="userSpaceOnUse">
<stop stop-color="#D2B782"/>
<stop offset="0.23" stop-color="#FBEA90"/>
<stop offset="0.41" stop-color="#CEAA62"/>
<stop offset="0.59" stop-color="#FFD893"/>
<stop offset="0.77" stop-color="#F8F0AF"/>
<stop offset="1" stop-color="#F6F4B7"/>
</linearGradient>
<linearGradient id="paint17_linear_17_152" x1="60.8672" y1="45.7862" x2="69.2071" y2="45.7862" gradientUnits="userSpaceOnUse">
<stop stop-color="#D2B782"/>
<stop offset="0.23" stop-color="#FBEA90"/>
<stop offset="0.41" stop-color="#CEAA62"/>
<stop offset="0.59" stop-color="#FFD893"/>
<stop offset="0.77" stop-color="#F8F0AF"/>
<stop offset="1" stop-color="#F6F4B7"/>
</linearGradient>
<linearGradient id="paint18_linear_17_152" x1="70.8884" y1="45.7862" x2="78.9596" y2="45.7862" gradientUnits="userSpaceOnUse">
<stop stop-color="#D2B782"/>
<stop offset="0.23" stop-color="#FBEA90"/>
<stop offset="0.41" stop-color="#CEAA62"/>
<stop offset="0.59" stop-color="#FFD893"/>
<stop offset="0.77" stop-color="#F8F0AF"/>
<stop offset="1" stop-color="#F6F4B7"/>
</linearGradient>
<linearGradient id="paint19_linear_17_152" x1="80.641" y1="45.7862" x2="87.6993" y2="45.7862" gradientUnits="userSpaceOnUse">
<stop stop-color="#D2B782"/>
<stop offset="0.23" stop-color="#FBEA90"/>
<stop offset="0.41" stop-color="#CEAA62"/>
<stop offset="0.59" stop-color="#FFD893"/>
<stop offset="0.77" stop-color="#F8F0AF"/>
<stop offset="1" stop-color="#F6F4B7"/>
</linearGradient>
<linearGradient id="paint20_linear_17_152" x1="89.2657" y1="45.7862" x2="98.2488" y2="45.7862" gradientUnits="userSpaceOnUse">
<stop stop-color="#D2B782"/>
<stop offset="0.23" stop-color="#FBEA90"/>
<stop offset="0.41" stop-color="#CEAA62"/>
<stop offset="0.59" stop-color="#FFD893"/>
<stop offset="0.77" stop-color="#F8F0AF"/>
<stop offset="1" stop-color="#F6F4B7"/>
</linearGradient>
<linearGradient id="paint21_linear_17_152" x1="101.17" y1="45.7862" x2="109.141" y2="45.7862" gradientUnits="userSpaceOnUse">
<stop stop-color="#D2B782"/>
<stop offset="0.23" stop-color="#FBEA90"/>
<stop offset="0.41" stop-color="#CEAA62"/>
<stop offset="0.59" stop-color="#FFD893"/>
<stop offset="0.77" stop-color="#F8F0AF"/>
<stop offset="1" stop-color="#F6F4B7"/>
</linearGradient>
<linearGradient id="paint22_linear_17_152" x1="109.883" y1="45.7862" x2="120.046" y2="45.7862" gradientUnits="userSpaceOnUse">
<stop stop-color="#D2B782"/>
<stop offset="0.23" stop-color="#FBEA90"/>
<stop offset="0.41" stop-color="#CEAA62"/>
<stop offset="0.59" stop-color="#FFD893"/>
<stop offset="0.77" stop-color="#F8F0AF"/>
<stop offset="1" stop-color="#F6F4B7"/>
</linearGradient>
<linearGradient id="paint23_linear_17_152" x1="119.633" y1="45.7862" x2="127.704" y2="45.7862" gradientUnits="userSpaceOnUse">
<stop stop-color="#D2B782"/>
<stop offset="0.23" stop-color="#FBEA90"/>
<stop offset="0.41" stop-color="#CEAA62"/>
<stop offset="0.59" stop-color="#FFD893"/>
<stop offset="0.77" stop-color="#F8F0AF"/>
<stop offset="1" stop-color="#F6F4B7"/>
</linearGradient>
<linearGradient id="paint24_linear_17_152" x1="129.385" y1="45.7862" x2="136.444" y2="45.7862" gradientUnits="userSpaceOnUse">
<stop stop-color="#D2B782"/>
<stop offset="0.23" stop-color="#FBEA90"/>
<stop offset="0.41" stop-color="#CEAA62"/>
<stop offset="0.59" stop-color="#FFD893"/>
<stop offset="0.77" stop-color="#F8F0AF"/>
<stop offset="1" stop-color="#F6F4B7"/>
</linearGradient>
<linearGradient id="paint25_linear_17_152" x1="138.924" y1="45.7862" x2="148.332" y2="45.7862" gradientUnits="userSpaceOnUse">
<stop stop-color="#D2B782"/>
<stop offset="0.23" stop-color="#FBEA90"/>
<stop offset="0.41" stop-color="#CEAA62"/>
<stop offset="0.59" stop-color="#FFD893"/>
<stop offset="0.77" stop-color="#F8F0AF"/>
<stop offset="1" stop-color="#F6F4B7"/>
</linearGradient>
<linearGradient id="paint26_linear_17_152" x1="154.435" y1="45.7862" x2="163.845" y2="45.7862" gradientUnits="userSpaceOnUse">
<stop stop-color="#D2B782"/>
<stop offset="0.23" stop-color="#FBEA90"/>
<stop offset="0.41" stop-color="#CEAA62"/>
<stop offset="0.59" stop-color="#FFD893"/>
<stop offset="0.77" stop-color="#F8F0AF"/>
<stop offset="1" stop-color="#F6F4B7"/>
</linearGradient>
<linearGradient id="paint27_linear_17_152" x1="166.211" y1="45.7862" x2="167.265" y2="45.7862" gradientUnits="userSpaceOnUse">
<stop stop-color="#D2B782"/>
<stop offset="0.23" stop-color="#FBEA90"/>
<stop offset="0.41" stop-color="#CEAA62"/>
<stop offset="0.59" stop-color="#FFD893"/>
<stop offset="0.77" stop-color="#F8F0AF"/>
<stop offset="1" stop-color="#F6F4B7"/>
</linearGradient>
<linearGradient id="paint28_linear_17_152" x1="169.562" y1="45.7862" x2="176.99" y2="45.7862" gradientUnits="userSpaceOnUse">
<stop stop-color="#D2B782"/>
<stop offset="0.23" stop-color="#FBEA90"/>
<stop offset="0.41" stop-color="#CEAA62"/>
<stop offset="0.59" stop-color="#FFD893"/>
<stop offset="0.77" stop-color="#F8F0AF"/>
<stop offset="1" stop-color="#F6F4B7"/>
</linearGradient>
<linearGradient id="paint29_linear_17_152" x1="179.285" y1="45.7862" x2="187.099" y2="45.7862" gradientUnits="userSpaceOnUse">
<stop stop-color="#D2B782"/>
<stop offset="0.23" stop-color="#FBEA90"/>
<stop offset="0.41" stop-color="#CEAA62"/>
<stop offset="0.59" stop-color="#FFD893"/>
<stop offset="0.77" stop-color="#F8F0AF"/>
<stop offset="1" stop-color="#F6F4B7"/>
</linearGradient>
<linearGradient id="paint30_linear_17_152" x1="189.38" y1="45.7862" x2="196.022" y2="45.7862" gradientUnits="userSpaceOnUse">
<stop stop-color="#D2B782"/>
<stop offset="0.23" stop-color="#FBEA90"/>
<stop offset="0.41" stop-color="#CEAA62"/>
<stop offset="0.59" stop-color="#FFD893"/>
<stop offset="0.77" stop-color="#F8F0AF"/>
<stop offset="1" stop-color="#F6F4B7"/>
</linearGradient>
<linearGradient id="paint31_linear_17_152" x1="196.181" y1="45.7862" x2="206.344" y2="45.7862" gradientUnits="userSpaceOnUse">
<stop stop-color="#D2B782"/>
<stop offset="0.23" stop-color="#FBEA90"/>
<stop offset="0.41" stop-color="#CEAA62"/>
<stop offset="0.59" stop-color="#FFD893"/>
<stop offset="0.77" stop-color="#F8F0AF"/>
<stop offset="1" stop-color="#F6F4B7"/>
</linearGradient>
<linearGradient id="paint32_linear_17_152" x1="205.717" y1="45.7862" x2="214.742" y2="45.7862" gradientUnits="userSpaceOnUse">
<stop stop-color="#D2B782"/>
<stop offset="0.23" stop-color="#FBEA90"/>
<stop offset="0.41" stop-color="#CEAA62"/>
<stop offset="0.59" stop-color="#FFD893"/>
<stop offset="0.77" stop-color="#F8F0AF"/>
<stop offset="1" stop-color="#F6F4B7"/>
</linearGradient>
<linearGradient id="paint33_linear_17_152" x1="219.161" y1="45.7862" x2="226.589" y2="45.7862" gradientUnits="userSpaceOnUse">
<stop stop-color="#D2B782"/>
<stop offset="0.23" stop-color="#FBEA90"/>
<stop offset="0.41" stop-color="#CEAA62"/>
<stop offset="0.59" stop-color="#FFD893"/>
<stop offset="0.77" stop-color="#F8F0AF"/>
<stop offset="1" stop-color="#F6F4B7"/>
</linearGradient>
<linearGradient id="paint34_linear_17_152" x1="228.002" y1="45.7862" x2="238.48" y2="45.7862" gradientUnits="userSpaceOnUse">
<stop stop-color="#D2B782"/>
<stop offset="0.23" stop-color="#FBEA90"/>
<stop offset="0.41" stop-color="#CEAA62"/>
<stop offset="0.59" stop-color="#FFD893"/>
<stop offset="0.77" stop-color="#F8F0AF"/>
<stop offset="1" stop-color="#F6F4B7"/>
</linearGradient>
<linearGradient id="paint35_linear_17_152" x1="240.761" y1="45.8275" x2="248.958" y2="45.8275" gradientUnits="userSpaceOnUse">
<stop stop-color="#D2B782"/>
<stop offset="0.23" stop-color="#FBEA90"/>
<stop offset="0.41" stop-color="#CEAA62"/>
<stop offset="0.59" stop-color="#FFD893"/>
<stop offset="0.77" stop-color="#F8F0AF"/>
<stop offset="1" stop-color="#F6F4B7"/>
</linearGradient>
<linearGradient id="paint36_linear_17_152" x1="252.14" y1="45.7862" x2="258.782" y2="45.7862" gradientUnits="userSpaceOnUse">
<stop stop-color="#D2B782"/>
<stop offset="0.23" stop-color="#FBEA90"/>
<stop offset="0.41" stop-color="#CEAA62"/>
<stop offset="0.59" stop-color="#FFD893"/>
<stop offset="0.77" stop-color="#F8F0AF"/>
<stop offset="1" stop-color="#F6F4B7"/>
</linearGradient>
<linearGradient id="paint37_linear_17_152" x1="257.87" y1="45.7862" x2="265.939" y2="45.7862" gradientUnits="userSpaceOnUse">
<stop stop-color="#D2B782"/>
<stop offset="0.23" stop-color="#FBEA90"/>
<stop offset="0.41" stop-color="#CEAA62"/>
<stop offset="0.59" stop-color="#FFD893"/>
<stop offset="0.77" stop-color="#F8F0AF"/>
<stop offset="1" stop-color="#F6F4B7"/>
</linearGradient>
<linearGradient id="paint38_linear_17_152" x1="267.623" y1="45.7862" x2="268.677" y2="45.7862" gradientUnits="userSpaceOnUse">
<stop stop-color="#D2B782"/>
<stop offset="0.23" stop-color="#FBEA90"/>
<stop offset="0.41" stop-color="#CEAA62"/>
<stop offset="0.59" stop-color="#FFD893"/>
<stop offset="0.77" stop-color="#F8F0AF"/>
<stop offset="1" stop-color="#F6F4B7"/>
</linearGradient>
<linearGradient id="paint39_linear_17_152" x1="271.043" y1="45.7862" x2="281.521" y2="45.7862" gradientUnits="userSpaceOnUse">
<stop stop-color="#D2B782"/>
<stop offset="0.23" stop-color="#FBEA90"/>
<stop offset="0.41" stop-color="#CEAA62"/>
<stop offset="0.59" stop-color="#FFD893"/>
<stop offset="0.77" stop-color="#F8F0AF"/>
<stop offset="1" stop-color="#F6F4B7"/>
</linearGradient>
<linearGradient id="paint40_linear_17_152" x1="283.889" y1="45.7862" x2="292.229" y2="45.7862" gradientUnits="userSpaceOnUse">
<stop stop-color="#D2B782"/>
<stop offset="0.23" stop-color="#FBEA90"/>
<stop offset="0.41" stop-color="#CEAA62"/>
<stop offset="0.59" stop-color="#FFD893"/>
<stop offset="0.77" stop-color="#F8F0AF"/>
<stop offset="1" stop-color="#F6F4B7"/>
</linearGradient>
<clipPath id="clip0_17_152">
<rect width="294" height="57" fill="white"/>
</clipPath>
</defs>
</svg>
