<svg preserveAspectRatio="none" width="100%" height="100%" overflow="visible" style="display: block;" viewBox="0 0 68.7089 68.7089" fill="none" xmlns="http://www.w3.org/2000/svg">
<g id="locker 1" clip-path="url(#clip0_0_97)">
<path id="Vector" d="M65.4953 0C65.9194 0.341755 66.3524 0.645935 66.3058 1.26861V65.1589C66.4544 65.5543 65.7261 66.4275 65.4291 66.4275H62.8167V68.7089H60.5389V66.4275H49.1537V68.7089H46.8759V66.4275H42.3221V68.7089H40.0444V66.4275H28.5267V68.7089H26.2489V66.4275H21.6952V68.7089H19.4174V66.4275H8.03214V68.7089H5.75437V66.4275H3.142C2.84498 66.4275 2.11673 65.5543 2.26525 65.1589V1.26861C2.21872 0.645935 2.65173 0.341755 3.0758 0H65.4899H65.4953ZM22.903 2.28135H4.55375V64.1462H22.903V2.28135ZM43.3957 2.28135H25.1807V64.1462H43.3957V2.28135ZM64.0209 2.28135H45.6717V64.1462H64.0209V2.28135Z" fill="var(--fill-0, black)"/>
<path id="Vector_2" d="M19.421 10.3332H8.03572V12.6145H19.421V10.3332Z" fill="var(--fill-0, black)"/>
<path id="Vector_3" d="M19.421 14.8959H8.03572V17.1772H19.421V14.8959Z" fill="var(--fill-0, black)"/>
<path id="Vector_4" d="M19.421 49.2503H8.03572V51.5316H19.421V49.2503Z" fill="var(--fill-0, black)"/>
<path id="Vector_5" d="M19.421 53.813H8.03572V56.0943H19.421V53.813Z" fill="var(--fill-0, black)"/>
<path id="Vector_6" d="M19.421 58.3757H8.03572V60.657H19.421V58.3757Z" fill="var(--fill-0, black)"/>
<path id="Vector_7" d="M19.421 5.77047H8.03572V8.05182H19.421V5.77047Z" fill="var(--fill-0, black)"/>
<path id="Vector_8" d="M10.3135 32.0731H8.03572V40.1249H10.3135V32.0731Z" fill="var(--fill-0, black)"/>
<path id="Vector_9" d="M10.3135 27.5104H8.03572V29.7917H10.3135V27.5104Z" fill="var(--fill-0, black)"/>
<path id="Vector_10" d="M60.5389 10.3332H49.1537V12.6145H60.5389V10.3332Z" fill="var(--fill-0, black)"/>
<path id="Vector_11" d="M60.5389 14.8959H49.1537V17.1772H60.5389V14.8959Z" fill="var(--fill-0, black)"/>
<path id="Vector_12" d="M60.5389 49.2503H49.1537V51.5316H60.5389V49.2503Z" fill="var(--fill-0, black)"/>
<path id="Vector_13" d="M60.5389 53.813H49.1537V56.0943H60.5389V53.813Z" fill="var(--fill-0, black)"/>
<path id="Vector_14" d="M60.5389 58.3757H49.1537V60.657H60.5389V58.3757Z" fill="var(--fill-0, black)"/>
<path id="Vector_15" d="M60.5389 5.77047H49.1537V8.05182H60.5389V5.77047Z" fill="var(--fill-0, black)"/>
<path id="Vector_16" d="M51.4314 32.0731H49.1537V40.1249H51.4314V32.0731Z" fill="var(--fill-0, black)"/>
<path id="Vector_17" d="M51.4314 27.5104H49.1537V29.7917H51.4314V27.5104Z" fill="var(--fill-0, black)"/>
<path id="Vector_18" d="M40.0462 49.2503H28.5285V51.5316H40.0462V49.2503Z" fill="var(--fill-0, black)"/>
<path id="Vector_19" d="M40.0462 53.813H28.5285V56.0943H40.0462V53.813Z" fill="var(--fill-0, black)"/>
<path id="Vector_20" d="M40.0462 14.8959H28.5285V17.1772H40.0462V14.8959Z" fill="var(--fill-0, black)"/>
<path id="Vector_21" d="M40.0462 10.3332H28.5285V12.6145H40.0462V10.3332Z" fill="var(--fill-0, black)"/>
<path id="Vector_22" d="M40.0462 58.3757H28.5285V60.657H40.0462V58.3757Z" fill="var(--fill-0, black)"/>
<path id="Vector_23" d="M40.0462 5.77047H28.5285V8.05898H40.0462V5.77047Z" fill="var(--fill-0, black)"/>
<path id="Vector_24" d="M30.8063 32.0731H28.5285V40.1249H30.8063V32.0731Z" fill="var(--fill-0, black)"/>
<path id="Vector_25" d="M30.8063 27.5104H28.5285V29.7917H30.8063V27.5104Z" fill="var(--fill-0, black)"/>
</g>
<defs>
<clipPath id="clip0_0_97">
<rect width="68.7089" height="68.7089" fill="white"/>
</clipPath>
</defs>
</svg>
