<svg preserveAspectRatio="none" width="100%" height="100%" overflow="visible" style="display: block;" viewBox="0 0 55.2 55.2" fill="none" xmlns="http://www.w3.org/2000/svg">
<g id="locker 1" clip-path="url(#clip0_0_63)">
<path id="Vector" d="M52.6182 0C52.9589 0.274562 53.3068 0.518938 53.2694 1.01919V52.348C53.3887 52.6657 52.8037 53.3672 52.5651 53.3672H50.4663V55.2H48.6364V53.3672H39.4896V55.2H37.6596V53.3672H34.0012V55.2H32.1712V53.3672H22.9181V55.2H21.0881V53.3672H17.4297V55.2H15.5997V53.3672H6.45294V55.2H4.623V53.3672H2.52425C2.28563 53.3672 1.70056 52.6657 1.81988 52.348V1.01919C1.7825 0.518938 2.13038 0.274562 2.47106 0H52.6139H52.6182ZM18.4 1.83281H3.65844V51.5344H18.4V1.83281ZM34.8637 1.83281H20.2299V51.5344H34.8637V1.83281ZM51.4337 1.83281H36.6922V51.5344H51.4337V1.83281Z" fill="var(--fill-0, black)"/>
<path id="Vector_2" d="M15.6026 8.30156H6.45581V10.1344H15.6026V8.30156Z" fill="var(--fill-0, black)"/>
<path id="Vector_3" d="M15.6026 11.9672H6.45581V13.8H15.6026V11.9672Z" fill="var(--fill-0, black)"/>
<path id="Vector_4" d="M15.6026 39.5672H6.45581V41.4H15.6026V39.5672Z" fill="var(--fill-0, black)"/>
<path id="Vector_5" d="M15.6026 43.2328H6.45581V45.0656H15.6026V43.2328Z" fill="var(--fill-0, black)"/>
<path id="Vector_6" d="M15.6026 46.8984H6.45581V48.7312H15.6026V46.8984Z" fill="var(--fill-0, black)"/>
<path id="Vector_7" d="M15.6026 4.63594H6.45581V6.46875H15.6026V4.63594Z" fill="var(--fill-0, black)"/>
<path id="Vector_8" d="M8.28575 25.7672H6.45581V32.2359H8.28575V25.7672Z" fill="var(--fill-0, black)"/>
<path id="Vector_9" d="M8.28575 22.1016H6.45581V23.9344H8.28575V22.1016Z" fill="var(--fill-0, black)"/>
<path id="Vector_10" d="M48.6364 8.30156H39.4896V10.1344H48.6364V8.30156Z" fill="var(--fill-0, black)"/>
<path id="Vector_11" d="M48.6364 11.9672H39.4896V13.8H48.6364V11.9672Z" fill="var(--fill-0, black)"/>
<path id="Vector_12" d="M48.6364 39.5672H39.4896V41.4H48.6364V39.5672Z" fill="var(--fill-0, black)"/>
<path id="Vector_13" d="M48.6364 43.2328H39.4896V45.0656H48.6364V43.2328Z" fill="var(--fill-0, black)"/>
<path id="Vector_14" d="M48.6364 46.8984H39.4896V48.7312H48.6364V46.8984Z" fill="var(--fill-0, black)"/>
<path id="Vector_15" d="M48.6364 4.63594H39.4896V6.46875H48.6364V4.63594Z" fill="var(--fill-0, black)"/>
<path id="Vector_16" d="M41.3195 25.7672H39.4896V32.2359H41.3195V25.7672Z" fill="var(--fill-0, black)"/>
<path id="Vector_17" d="M41.3195 22.1016H39.4896V23.9344H41.3195V22.1016Z" fill="var(--fill-0, black)"/>
<path id="Vector_18" d="M32.1727 39.5672H22.9195V41.4H32.1727V39.5672Z" fill="var(--fill-0, black)"/>
<path id="Vector_19" d="M32.1727 43.2328H22.9195V45.0656H32.1727V43.2328Z" fill="var(--fill-0, black)"/>
<path id="Vector_20" d="M32.1727 11.9672H22.9195V13.8H32.1727V11.9672Z" fill="var(--fill-0, black)"/>
<path id="Vector_21" d="M32.1727 8.30156H22.9195V10.1344H32.1727V8.30156Z" fill="var(--fill-0, black)"/>
<path id="Vector_22" d="M32.1727 46.8984H22.9195V48.7312H32.1727V46.8984Z" fill="var(--fill-0, black)"/>
<path id="Vector_23" d="M32.1727 4.63594H22.9195V6.4745H32.1727V4.63594Z" fill="var(--fill-0, black)"/>
<path id="Vector_24" d="M24.7494 25.7672H22.9195V32.2359H24.7494V25.7672Z" fill="var(--fill-0, black)"/>
<path id="Vector_25" d="M24.7494 22.1016H22.9195V23.9344H24.7494V22.1016Z" fill="var(--fill-0, black)"/>
</g>
<defs>
<clipPath id="clip0_0_63">
<rect width="55.2" height="55.2" fill="white"/>
</clipPath>
</defs>
</svg>
