<svg preserveAspectRatio="none" width="100%" height="100%" overflow="visible" style="display: block;" viewBox="0 0 92 92" fill="none" xmlns="http://www.w3.org/2000/svg">
<g id="locker 1">
<path id="Vector" d="M87.6971 0C88.2649 0.457604 88.8447 0.864896 88.7824 1.69865V87.2467C88.9812 87.7761 88.0061 88.9453 87.6084 88.9453H84.1105V92H81.0606V88.9453H65.8159V92H62.766V88.9453H56.6686V92H53.6187V88.9453H38.1968V92H35.1469V88.9453H29.0495V92H25.9996V88.9453H10.7549V92H7.705V88.9453H4.20708C3.80938 88.9453 2.83427 87.7761 3.03313 87.2467V1.69865C2.97083 0.864896 3.55063 0.457604 4.11844 0H87.6899H87.6971ZM30.6667 3.05469H6.0974V85.8906H30.6667V3.05469ZM58.1061 3.05469H33.7166V85.8906H58.1061V3.05469ZM85.7229 3.05469H61.1536V85.8906H85.7229V3.05469Z" fill="var(--fill-0, black)"/>
<path id="Vector_2" d="M26.0044 13.8359H10.7597V16.8906H26.0044V13.8359Z" fill="var(--fill-0, black)"/>
<path id="Vector_3" d="M26.0044 19.9453H10.7597V23H26.0044V19.9453Z" fill="var(--fill-0, black)"/>
<path id="Vector_4" d="M26.0044 65.9453H10.7597V69H26.0044V65.9453Z" fill="var(--fill-0, black)"/>
<path id="Vector_5" d="M26.0044 72.0547H10.7597V75.1094H26.0044V72.0547Z" fill="var(--fill-0, black)"/>
<path id="Vector_6" d="M26.0044 78.1641H10.7597V81.2188H26.0044V78.1641Z" fill="var(--fill-0, black)"/>
<path id="Vector_7" d="M26.0044 7.72656H10.7597V10.7812H26.0044V7.72656Z" fill="var(--fill-0, black)"/>
<path id="Vector_8" d="M13.8096 42.9453H10.7597V53.7266H13.8096V42.9453Z" fill="var(--fill-0, black)"/>
<path id="Vector_9" d="M13.8096 36.8359H10.7597V39.8906H13.8096V36.8359Z" fill="var(--fill-0, black)"/>
<path id="Vector_10" d="M81.0606 13.8359H65.8159V16.8906H81.0606V13.8359Z" fill="var(--fill-0, black)"/>
<path id="Vector_11" d="M81.0606 19.9453H65.8159V23H81.0606V19.9453Z" fill="var(--fill-0, black)"/>
<path id="Vector_12" d="M81.0606 65.9453H65.8159V69H81.0606V65.9453Z" fill="var(--fill-0, black)"/>
<path id="Vector_13" d="M81.0606 72.0547H65.8159V75.1094H81.0606V72.0547Z" fill="var(--fill-0, black)"/>
<path id="Vector_14" d="M81.0606 78.1641H65.8159V81.2188H81.0606V78.1641Z" fill="var(--fill-0, black)"/>
<path id="Vector_15" d="M81.0606 7.72656H65.8159V10.7812H81.0606V7.72656Z" fill="var(--fill-0, black)"/>
<path id="Vector_16" d="M68.8658 42.9453H65.8159V53.7266H68.8658V42.9453Z" fill="var(--fill-0, black)"/>
<path id="Vector_17" d="M68.8658 36.8359H65.8159V39.8906H68.8658V36.8359Z" fill="var(--fill-0, black)"/>
<path id="Vector_18" d="M53.6211 65.9453H38.1992V69H53.6211V65.9453Z" fill="var(--fill-0, black)"/>
<path id="Vector_19" d="M53.6211 72.0547H38.1992V75.1094H53.6211V72.0547Z" fill="var(--fill-0, black)"/>
<path id="Vector_20" d="M53.6211 19.9453H38.1992V23H53.6211V19.9453Z" fill="var(--fill-0, black)"/>
<path id="Vector_21" d="M53.6211 13.8359H38.1992V16.8906H53.6211V13.8359Z" fill="var(--fill-0, black)"/>
<path id="Vector_22" d="M53.6211 78.1641H38.1992V81.2188H53.6211V78.1641Z" fill="var(--fill-0, black)"/>
<path id="Vector_23" d="M53.6211 7.72656H38.1992V10.7908H53.6211V7.72656Z" fill="var(--fill-0, black)"/>
<path id="Vector_24" d="M41.2491 42.9453H38.1992V53.7266H41.2491V42.9453Z" fill="var(--fill-0, black)"/>
<path id="Vector_25" d="M41.2491 36.8359H38.1992V39.8906H41.2491V36.8359Z" fill="var(--fill-0, black)"/>
</g>
</svg>
